<svg version="1.1" xmlns="http://www.w3.org/2000/svg" xmlns:xlink="http://www.w3.org/1999/xlink" width="30px" height="30px" viewBox="0,0,256,256"><g fill="#030303" fill-rule="nonzero" stroke="none" stroke-width="1" stroke-linecap="butt" stroke-linejoin="miter" stroke-miterlimit="10" stroke-dasharray="" stroke-dashoffset="0"  style="mix-blend-mode: normal"><g transform="scale(8.53333,8.53333)"><path d="M26.997,13.747c0,4.538 -2.205,7.347 -5.795,7.347c-1.859,0 -3.186,-0.807 -3.575,-2.175h-0.274c-0.591,1.455 -1.715,2.19 -3.373,2.19c-2.998,0 -4.987,-2.42 -4.987,-6.079c0,-3.501 1.917,-5.863 4.771,-5.863c1.557,0 2.782,0.749 3.359,2.046h0.274v-1.7h3.315v7.318c0,1.023 0.461,1.628 1.24,1.628c1.268,0 2.076,-1.685 2.076,-4.365c0,-5.215 -3.416,-8.557 -8.735,-8.557c-5.55,0 -9.326,3.89 -9.326,9.551c0,5.733 3.805,9.321 9.917,9.321c1.326,0 2.695,-0.173 3.445,-0.403v2.564c-1.038,0.272 -2.393,0.43 -3.763,0.43c-7.538,0 -12.569,-4.797 -12.569,-11.986c0,-7.102 5.045,-12.014 12.339,-12.014c6.948,0 11.661,4.351 11.661,10.747zM12.784,15.13c0,1.873 0.778,2.996 2.09,2.996c1.326,0 2.133,-1.138 2.133,-2.996c0,-1.858 -0.822,-2.996 -2.133,-2.996c-1.311,0 -2.09,1.123 -2.09,2.996z"></path></g></g></svg>