<svg version="1.1" xmlns="http://www.w3.org/2000/svg" xmlns:xlink="http://www.w3.org/1999/xlink" width="24px" height="24px" viewBox="0,0,256,256"><g fill="#9d9d9d" fill-rule="nonzero" stroke="none" stroke-width="1" stroke-linecap="butt" stroke-linejoin="miter" stroke-miterlimit="10" stroke-dasharray="" stroke-dashoffset="0"  style="mix-blend-mode: normal"><g transform="scale(10.66667,10.66667)"><path d="M19,8h-1c-1.657,0 -3,1.343 -3,3v2.071l-0.932,2.981c-0.143,0.455 -0.06,0.951 0.223,1.336c0.283,0.385 0.731,0.612 1.209,0.612h5c0.828,0 1.5,-0.672 1.5,-1.5v-5.5c0,-1.657 -1.343,-3 -3,-3z"></path><path d="M2,11v5.5c0,0.828 0.672,1.5 1.5,1.5h1.5c0,-0.552 0.448,-1 1,-1c0.552,0 1,0.448 1,1h2v-7c0,-1.657 -1.343,-3 -3,-3h-1c-1.657,0 -3,1.343 -3,3z"></path><path d="M9,17h-2c0,0 0,3.814 0,4c0,0.552 0.448,1 1,1c0.552,0 1,-0.448 1,-1c0,-0.186 0,-4 0,-4z"></path><path d="M5,17h-2c0,0 0,3.814 0,4c0,0.552 0.448,1 1,1c0.552,0 1,-0.448 1,-1c0,-0.186 0,-4 0,-4z"></path><path d="M15,17h2c0,0 0,3.814 0,4c0,0.552 -0.448,1 -1,1c-0.552,0 -1,-0.448 -1,-1c0,-0.186 0,-4 0,-4z"></path><path d="M19,17h2c0,0 0,3.814 0,4c0,0.552 -0.448,1 -1,1c-0.552,0 -1,-0.448 -1,-1c0,-0.186 0,-4 0,-4z"></path><path d="M12,16c-0.294,0 -0.573,-0.129 -0.763,-0.354l-4.487,-5.293c-0.358,-0.421 -0.306,-1.052 0.116,-1.41c0.422,-0.356 1.052,-0.304 1.409,0.117l3.725,4.393l3.725,-4.394c0.357,-0.422 0.987,-0.474 1.409,-0.116c0.421,0.357 0.474,0.988 0.116,1.409l-4.488,5.294c-0.189,0.225 -0.468,0.354 -0.762,0.354z"></path><circle cx="6" cy="4.5" r="2.5" opacity="0.35"></circle><circle cx="18" cy="4.5" r="2.5" opacity="0.35"></circle><path d="M22.506,5.494c-0.344,-0.344 -0.839,-0.456 -1.169,-0.492c-0.194,-0.021 -0.356,0.141 -0.335,0.335c0.036,0.33 0.148,0.825 0.492,1.169c0.344,0.344 0.839,0.456 1.169,0.492c0.194,0.021 0.356,-0.141 0.335,-0.335c-0.035,-0.331 -0.148,-0.826 -0.492,-1.169z" opacity="0.35"></path></g></g></svg>