<svg version="1.1" xmlns="http://www.w3.org/2000/svg" xmlns:xlink="http://www.w3.org/1999/xlink" width="48px" height="48px" viewBox="0,0,256,256"><g fill="#ffffff" fill-rule="nonzero" stroke="none" stroke-width="1" stroke-linecap="butt" stroke-linejoin="miter" stroke-miterlimit="10" stroke-dasharray="" stroke-dashoffset="0"  style="mix-blend-mode: normal"><g transform="scale(5.33333,5.33333)"><path d="M24,4c-4.962,0 -9,4.037 -9,9c0,0.338 0.02159,0.671 0.05859,1h3.03125c-0.055,-0.326 -0.08984,-0.659 -0.08984,-1c0,-3.309 2.691,-6 6,-6c3.309,0 6,2.691 6,6c0,0.341 -0.03484,0.674 -0.08984,1h3.03125c0.037,-0.329 0.05859,-0.662 0.05859,-1c0,-4.963 -4.038,-9 -9,-9zM10,16c-1.75226,0 -3.41766,0.7688 -4.55664,2.09961c-1.13919,1.33105 -1.64157,3.09536 -1.37109,4.82617l2.5,16c0.11763,0.75292 0.37574,1.4497 0.73828,2.07422h-1.81055c-0.54095,-0.00765 -1.04412,0.27656 -1.31683,0.74381c-0.27271,0.46725 -0.27271,1.04514 0,1.51238c0.27271,0.46725 0.77588,0.75146 1.31683,0.74381h6.97461c0.00729,0.00003 0.01419,0.00195 0.02149,0.00195h23.01172c0.00729,0 0.0142,-0.00193 0.02148,-0.00195h6.9707c0.54095,0.00765 1.04412,-0.27656 1.31683,-0.74381c0.27271,-0.46725 0.27271,-1.04514 0,-1.51238c-0.27271,-0.46725 -0.77588,-0.75146 -1.31683,-0.74381h-1.80859c0.36237,-0.62453 0.62064,-1.32128 0.73828,-2.07422l2.5,-16.00195c0.26776,-1.72914 -0.23158,-3.49279 -1.37109,-4.82422c-1.13935,-1.33124 -2.80633,-2.09961 -4.55859,-2.09961zM10,19h28c0.87774,0 1.70865,0.38207 2.2793,1.04883c0.57049,0.66657 0.81978,1.54916 0.68555,2.41602l0.00195,-0.00195l-2.5,16c-0.23271,1.4895 -1.49543,2.52672 -2.9375,2.53711h-23.05469c-1.44207,-0.01039 -2.70479,-1.04761 -2.9375,-2.53711l-2.5,-16c-0.13552,-0.86714 0.11278,-1.74711 0.68359,-2.41406c0.57102,-0.66719 1.40156,-1.04883 2.2793,-1.04883zM24,27c-1.65685,0 -3,1.34315 -3,3c0,1.65685 1.34315,3 3,3c1.65685,0 3,-1.34315 3,-3c0,-1.65685 -1.34315,-3 -3,-3z"></path></g></g></svg>