<svg version="1.1" xmlns="http://www.w3.org/2000/svg" xmlns:xlink="http://www.w3.org/1999/xlink" width="48px" height="48px" viewBox="0,0,256,256"><g fill="#030303" fill-rule="nonzero" stroke="none" stroke-width="1" stroke-linecap="butt" stroke-linejoin="miter" stroke-miterlimit="10" stroke-dasharray="" stroke-dashoffset="0"  style="mix-blend-mode: normal"><g transform="scale(5.33333,5.33333)"><path d="M24,6.01172c-1.03425,0 -2.06784,0.22387 -3.02734,0.67188l-18.10742,8.45508c-0.528,0.246 -0.86523,0.77738 -0.86523,1.35938c0,0.582 0.33723,1.11338 0.86523,1.35938l18.10742,8.45508c0.977,0.456 2.00134,0.68359 3.02734,0.68359c1.026,0 2.05134,-0.22759 3.02734,-0.68359l6.97266,-3.25586v12.44727c-0.85747,0.64658 -1.20619,1.76856 -0.86632,2.78729c0.33987,1.01873 1.29239,1.70658 2.36632,1.70881c1.075,-0.00112 2.02893,-0.68933 2.36901,-1.70912c0.34008,-1.01979 -0.00985,-2.14281 -0.86901,-2.78893v-13.66602c0.05791,-0.37431 -0.02791,-0.75666 -0.24023,-1.07031c-0.02331,-0.03488 -0.04807,-0.06876 -0.07422,-0.10156c-0.19475,-0.25271 -0.465,-0.43675 -0.77148,-0.52539c-0.0013,-0.00065 -0.0026,-0.0013 -0.00391,-0.00195l-9.64258,-4.4707c-0.16709,-0.18425 -0.26758,-0.42033 -0.26758,-0.66797c0,-0.141 0.03075,-0.28297 0.09375,-0.41797c0.231,-0.502 0.82813,-0.71833 1.32813,-0.48633l10.43555,4.83789c0.697,0.323 1.14258,1.02201 1.14258,1.79102l6.13477,-2.86523c0.02,-0.009 0.02597,-0.01834 0.04297,-0.02734c0.288,-0.147 0.53464,-0.38126 0.68164,-0.69727c0.35,-0.751 0.02539,-1.64414 -0.72461,-1.99414l-18.10742,-8.45508c-0.9595,-0.448 -1.99309,-0.67188 -3.02734,-0.67187zM10,24.39648v10.13281c0,2.149 1.24397,4.10733 3.16797,4.98633c3.659,1.671 7.17791,2.48438 10.75391,2.48438h0.07813h0.00586c2.718,-0.01 5.51756,-0.49688 8.22656,-1.42187c-0.759,-0.805 -1.23242,-1.88412 -1.23242,-3.07812c0,-1.063 0.384,-2.02687 1,-2.79687v-7.50586l-4.12695,1.92578c-1.238,0.579 -2.54105,0.87305 -3.87305,0.87305c-1.332,0 -2.63405,-0.29405 -3.87305,-0.87305z"></path></g></g></svg>