<?xml version="1.0" encoding="UTF-8" standalone="no"?>
<!DOCTYPE svg PUBLIC "-//W3C//DTD SVG 1.1//EN" "http://www.w3.org/Graphics/SVG/1.1/DTD/svg11.dtd">
<svg xmlns="http://www.w3.org/2000/svg" version="1.1" viewBox="0.00 0.00 1024.00 299.00">
<g stroke-width="2.00" fill="none" stroke-linecap="butt">
<path stroke="#d6b1cb" vector-effect="non-scaling-stroke" d="
  M 460.73 99.84
  Q 459.56 102.04 463.29 103.23"
/>
<path stroke="#9e8ea3" vector-effect="non-scaling-stroke" d="
  M 396.06 103.30
  L 397.57 102.48
  Q 398.14 102.18 397.52 102.01
  Q 397.16 101.91 396.54 102.02"
/>
<path stroke="#b4c5cf" vector-effect="non-scaling-stroke" d="
  M 266.65 166.75
  Q 263.58 166.28 261.98 167.30"
/>
<path stroke="#ac5e91" vector-effect="non-scaling-stroke" d="
  M 261.98 167.30
  L 256.69 167.75"
/>
<path stroke="#b4c5cf" vector-effect="non-scaling-stroke" d="
  M 256.69 167.75
  Q 257.21 167.21 255.52 166.59"
/>
<path stroke="#b4c5cf" vector-effect="non-scaling-stroke" d="
  M 237.38 181.10
  Q 237.77 181.78 238.06 181.87"
/>
<path stroke="#e381b9" vector-effect="non-scaling-stroke" d="
  M 256.69 167.75
  C 248.64 171.09 243.66 178.27 239.21 185.47
  A 0.97 0.97 0.0 0 1 237.56 185.47
  C 235.23 181.67 232.55 177.14 229.54 174.34
  C 223.72 168.94 213.77 166.44 207.02 171.50
  C 198.62 177.79 199.71 191.03 204.27 199.29
  C 209.25 208.31 222.12 228.48 232.67 230.92
  Q 241.02 232.86 248.06 226.31
  Q 262.19 213.17 270.64 197.10
  C 275.55 187.75 275.50 169.13 261.98 167.30"
/>
<path stroke="#475b69" vector-effect="non-scaling-stroke" d="
  M 129.17 243.27
  C 120.89 236.91 111.16 238.48 101.99 241.51
  Q 98.30 242.73 95.24 241.51
  A 1.33 1.33 0.0 0 1 94.52 240.82
  Q 93.40 238.25 94.03 235.51
  C 108.71 171.22 127.29 107.90 143.36 43.95
  C 144.63 38.88 147.01 30.78 147.71 25.00
  C 148.93 14.97 142.13 3.77 131.21 2.97
  Q 115.59 1.83 108.20 12.96
  Q 105.44 17.11 102.30 29.16
  C 82.68 104.43 62.77 179.58 43.98 255.06
  Q 42.90 259.40 41.88 263.83
  C 38.90 276.79 48.70 286.36 60.37 288.98
  C 66.68 290.39 73.79 288.86 78.92 287.39
  Q 93.29 283.26 121.01 274.55
  Q 129.26 271.96 135.18 267.65
  C 145.02 260.49 135.68 248.26 129.17 243.27"
/>
<path stroke="#475b69" vector-effect="non-scaling-stroke" d="
  M 541.69 39.94
  C 534.49 55.27 543.69 71.09 560.17 73.53
  Q 568.44 74.75 572.70 73.97
  C 585.09 71.71 593.90 62.49 593.38 49.75
  C 592.23 21.23 553.30 15.22 541.69 39.94"
/>
<path stroke="#6a4766" vector-effect="non-scaling-stroke" d="
  M 414.61 231.31
  Q 403.66 187.56 391.50 144.00
  Q 389.02 135.09 387.26 123.40
  Q 386.25 116.67 384.65 113.37
  C 372.72 88.85 333.57 100.62 340.55 129.76
  Q 343.42 141.72 346.68 153.57
  C 349.67 164.44 354.35 176.74 357.65 187.57
  Q 367.66 220.36 378.99 262.21
  C 382.71 275.94 389.02 285.88 403.51 288.94
  C 422.23 292.90 433.86 284.76 442.12 268.40
  C 463.50 226.08 485.68 184.25 507.77 142.29
  C 514.31 129.88 518.89 116.66 508.56 105.74
  Q 498.04 94.61 482.07 99.31
  C 469.62 102.97 467.72 117.10 463.79 127.44
  Q 461.24 134.15 459.94 136.69
  Q 436.16 183.28 415.18 231.35
  A 0.30 0.30 0.0 0 1 414.61 231.31"
/>
<path stroke="#475b69" vector-effect="non-scaling-stroke" d="
  M 168.74 254.99
  Q 180.48 242.95 188.56 228.14
  A 1.12 1.10 -41.9 0 0 188.62 227.20
  C 187.74 224.95 186.13 222.33 185.43 220.78
  Q 173.02 193.38 186.96 169.08
  C 198.71 148.59 222.21 137.90 245.43 140.52
  C 266.97 142.95 284.92 155.44 291.37 176.65
  C 297.29 196.12 288.26 217.81 274.29 231.80
  Q 260.07 246.02 241.92 250.39
  C 229.34 253.41 221.43 250.08 212.13 242.01
  C 206.73 237.32 202.03 236.57 196.72 241.99
  Q 189.38 249.49 184.80 257.69
  C 178.47 269.03 184.52 276.04 194.29 281.24
  C 236.54 303.74 284.72 288.62 314.33 253.58
  C 337.21 226.49 343.33 191.95 331.08 158.70
  C 319.72 127.88 289.55 105.67 258.15 99.67
  C 228.46 93.99 198.09 101.61 174.54 119.97
  C 150.13 139.01 133.84 170.72 136.30 201.99
  Q 138.23 226.57 151.93 247.89
  C 155.19 252.98 162.34 261.54 168.74 254.99"
/>
<path stroke="#475b69" vector-effect="non-scaling-stroke" d="
  M 583.19 280.56
  Q 608.83 301.90 639.22 294.10
  C 663.56 287.86 678.58 269.62 682.78 244.49
  C 689.31 205.54 658.50 190.67 636.35 167.91
  Q 631.89 163.33 629.23 157.55
  C 621.46 140.64 647.52 130.02 654.37 143.38
  Q 655.04 144.68 655.94 149.75
  C 657.78 160.02 665.15 165.00 675.14 165.91
  C 696.03 167.82 700.02 151.92 694.90 135.33
  C 689.31 117.22 676.55 104.67 658.53 99.68
  C 629.86 91.74 595.49 108.58 587.99 138.25
  C 579.71 170.96 600.88 188.39 622.99 206.95
  C 631.92 214.44 641.13 222.59 640.51 235.18
  C 639.76 250.68 626.77 260.88 611.81 252.78
  C 604.64 248.90 608.88 239.93 606.93 233.65
  C 605.03 227.52 598.95 222.83 593.29 220.90
  C 582.92 217.37 571.98 221.82 567.28 231.83
  C 565.33 235.99 564.08 244.28 564.72 248.54
  Q 567.59 267.59 583.19 280.56"
/>
<path stroke="#475b69" vector-effect="non-scaling-stroke" d="
  M 787.38 248.28
  C 771.50 247.25 758.17 235.16 752.71 220.68
  A 1.49 1.48 -10.4 0 1 754.10 218.67
  Q 806.54 218.82 858.31 218.73
  C 871.51 218.70 878.86 199.08 881.95 188.74
  C 894.80 145.83 858.42 106.86 818.25 99.76
  C 778.37 92.71 738.57 111.42 718.69 146.69
  C 703.22 174.15 699.19 213.64 715.66 242.31
  Q 738.47 282.01 783.55 289.86
  C 805.93 293.76 838.56 288.13 848.45 264.70
  C 854.85 249.55 844.62 239.88 831.40 235.32
  C 829.01 234.50 826.62 234.63 824.54 235.77
  C 813.58 241.73 800.30 249.12 787.38 248.28"
/>
<path stroke="#475b69" vector-effect="non-scaling-stroke" d="
  M 875.88 257.42
  C 871.87 272.62 879.62 284.55 895.51 285.76
  C 910.69 286.91 918.73 273.38 921.32 260.28
  C 922.60 253.80 923.83 247.47 925.48 240.97
  Q 935.40 201.88 944.44 162.58
  C 944.85 160.79 944.66 158.05 945.79 156.24
  Q 946.60 154.95 947.66 156.03
  C 954.83 163.28 957.63 170.93 970.23 166.64
  C 983.99 161.95 985.42 138.72 984.50 127.01
  C 983.38 112.91 974.55 102.57 959.91 100.84
  Q 943.97 98.96 927.99 99.35
  Q 925.61 99.41 923.74 100.54
  C 916.75 104.80 912.29 109.38 910.38 117.65
  Q 894.21 187.80 875.88 257.42"
/>
<path stroke="#475b69" vector-effect="non-scaling-stroke" d="
  M 825.30 146.06
  C 796.52 126.59 762.33 150.41 751.42 178.12
  A 0.88 0.88 0.0 0 0 752.17 179.32
  Q 759.06 179.86 766.44 179.90
  Q 794.48 180.02 822.52 180.30
  C 827.98 180.36 835.52 180.72 842.01 180.22
  A 1.28 1.27 86.2 0 0 843.19 178.86
  Q 841.69 157.15 825.30 146.06"
/>
<path stroke="#475b69" vector-effect="non-scaling-stroke" d="
  M 496.81 270.44
  C 498.01 279.57 505.58 285.00 514.18 285.98
  C 527.26 287.48 538.92 277.23 542.01 264.99
  Q 543.16 260.43 545.14 248.86
  C 548.11 231.55 552.94 214.41 556.82 197.27
  C 561.42 176.94 566.59 156.75 571.44 136.49
  C 573.60 127.48 576.19 115.93 570.40 108.06
  C 562.60 97.46 545.35 97.23 536.11 105.89
  Q 531.46 110.25 529.67 116.73
  C 520.18 151.19 512.86 183.85 502.38 231.72
  Q 499.69 244.02 497.68 256.43
  Q 496.19 265.64 496.81 270.44"
/>
</g>
<path fill="#7ca2a7" fill-opacity="0.996" d="
  M 102.98 240.33
  C 119.45 234.25 132.01 239.23 139.56 254.94
  C 145.05 266.35 130.05 272.64 122.19 275.08
  Q 102.97 281.04 83.75 286.99
  C 77.30 288.98 70.09 290.90 63.67 290.42
  C 50.05 289.39 37.36 278.03 40.98 263.13
  C 60.99 180.77 82.59 101.49 103.50 20.75
  C 108.38 1.91 135.25 -6.78 145.94 11.57
  C 149.82 18.21 149.21 24.39 147.23 32.38
  Q 134.25 84.86 119.93 136.98
  Q 104.39 193.55 99.29 216.76
  Q 96.96 227.38 95.47 232.94
  C 94.86 235.22 94.84 237.23 95.19 239.42
  A 1.75 1.74 1.2 0 0 96.57 240.85
  Q 99.80 241.50 102.98 240.33
  Z
  M 129.17 243.27
  C 120.89 236.91 111.16 238.48 101.99 241.51
  Q 98.30 242.73 95.24 241.51
  A 1.33 1.33 0.0 0 1 94.52 240.82
  Q 93.40 238.25 94.03 235.51
  C 108.71 171.22 127.29 107.90 143.36 43.95
  C 144.63 38.88 147.01 30.78 147.71 25.00
  C 148.93 14.97 142.13 3.77 131.21 2.97
  Q 115.59 1.83 108.20 12.96
  Q 105.44 17.11 102.30 29.16
  C 82.68 104.43 62.77 179.58 43.98 255.06
  Q 42.90 259.40 41.88 263.83
  C 38.90 276.79 48.70 286.36 60.37 288.98
  C 66.68 290.39 73.79 288.86 78.92 287.39
  Q 93.29 283.26 121.01 274.55
  Q 129.26 271.96 135.18 267.65
  C 145.02 260.49 135.68 248.26 129.17 243.27
  Z"
/>
<path fill="#13142c" d="
  M 129.17 243.27
  C 135.68 248.26 145.02 260.49 135.18 267.65
  Q 129.26 271.96 121.01 274.55
  Q 93.29 283.26 78.92 287.39
  C 73.79 288.86 66.68 290.39 60.37 288.98
  C 48.70 286.36 38.90 276.79 41.88 263.83
  Q 42.90 259.40 43.98 255.06
  C 62.77 179.58 82.68 104.43 102.30 29.16
  Q 105.44 17.11 108.20 12.96
  Q 115.59 1.83 131.21 2.97
  C 142.13 3.77 148.93 14.97 147.71 25.00
  C 147.01 30.78 144.63 38.88 143.36 43.95
  C 127.29 107.90 108.71 171.22 94.03 235.51
  Q 93.40 238.25 94.52 240.82
  A 1.33 1.33 0.0 0 0 95.24 241.51
  Q 98.30 242.73 101.99 241.51
  C 111.16 238.48 120.89 236.91 129.17 243.27
  Z"
/>
<path fill="#7ca2a7" fill-opacity="0.996" d="
  M 546.84 30.97
  C 554.59 23.31 567.65 21.23 577.86 25.55
  C 593.33 32.09 599.70 51.09 589.77 64.96
  C 580.22 78.29 557.16 78.41 545.59 67.53
  C 534.62 57.21 536.88 40.82 546.84 30.97
  Z
  M 541.69 39.94
  C 534.49 55.27 543.69 71.09 560.17 73.53
  Q 568.44 74.75 572.70 73.97
  C 585.09 71.71 593.90 62.49 593.38 49.75
  C 592.23 21.23 553.30 15.22 541.69 39.94
  Z"
/>
<path fill="#13142c" d="
  M 541.69 39.94
  C 553.30 15.22 592.23 21.23 593.38 49.75
  C 593.90 62.49 585.09 71.71 572.70 73.97
  Q 568.44 74.75 560.17 73.53
  C 543.69 71.09 534.49 55.27 541.69 39.94
  Z"
/>
<path fill="#13142c" d="
  M 925.92 55.93
  Q 926.34 56.31 925.79 56.22
  Q 924.64 56.04 924.18 54.77
  Q 923.97 54.18 924.44 54.60
  L 925.92 55.93
  Z"
/>
<path fill="#c07a9f" d="
  M 460.73 99.84
  Q 459.56 102.04 463.29 103.23
  L 467.86 111.54
  A 0.29 0.28 -46.9 0 0 468.37 111.52
  C 470.76 106.23 473.93 101.63 479.39 99.20
  C 493.68 92.84 509.62 99.20 514.74 114.21
  C 517.65 122.75 513.41 133.64 509.44 141.22
  C 487.73 182.69 465.35 223.81 444.48 265.71
  C 437.06 280.58 428.66 291.72 410.15 290.94
  Q 400.35 290.53 392.33 285.41
  C 382.46 279.10 379.94 268.45 376.68 256.70
  Q 366.70 220.75 355.78 185.08
  C 352.68 174.97 348.50 164.91 345.82 154.57
  Q 342.48 141.64 339.03 128.74
  Q 337.52 123.05 339.23 116.95
  C 342.54 105.18 353.38 98.27 365.41 99.30
  Q 380.47 100.59 387.19 115.42
  A 0.63 0.63 0.0 0 0 388.36 115.36
  Q 389.31 112.70 390.11 109.77
  Q 390.44 108.59 391.46 108.72
  Q 391.96 108.78 392.40 108.51
  Q 395.65 106.47 396.06 103.30
  L 397.57 102.48
  Q 398.14 102.18 397.52 102.01
  Q 397.16 101.91 396.54 102.02
  Q 396.42 101.54 396.52 101.20
  Q 396.66 100.72 397.15 100.61
  C 398.99 100.20 403.35 99.86 403.80 97.67
  Q 403.92 97.11 404.47 96.99
  Q 406.18 96.62 406.48 94.82
  Q 406.58 94.22 407.18 94.17
  C 411.61 93.81 414.35 91.18 417.63 89.99
  C 432.48 84.63 448.17 86.61 458.55 99.31
  Q 458.87 99.70 459.37 99.74
  L 460.73 99.84
  Z
  M 414.61 231.31
  Q 403.66 187.56 391.50 144.00
  Q 389.02 135.09 387.26 123.40
  Q 386.25 116.67 384.65 113.37
  C 372.72 88.85 333.57 100.62 340.55 129.76
  Q 343.42 141.72 346.68 153.57
  C 349.67 164.44 354.35 176.74 357.65 187.57
  Q 367.66 220.36 378.99 262.21
  C 382.71 275.94 389.02 285.88 403.51 288.94
  C 422.23 292.90 433.86 284.76 442.12 268.40
  C 463.50 226.08 485.68 184.25 507.77 142.29
  C 514.31 129.88 518.89 116.66 508.56 105.74
  Q 498.04 94.61 482.07 99.31
  C 469.62 102.97 467.72 117.10 463.79 127.44
  Q 461.24 134.15 459.94 136.69
  Q 436.16 183.28 415.18 231.35
  A 0.30 0.30 0.0 0 1 414.61 231.31
  Z"
/>
<path fill="#7ca2a7" fill-opacity="0.996" d="
  M 320.67 137.34
  C 327.73 146.24 332.02 156.75 334.96 167.64
  C 348.97 219.58 316.83 268.67 268.77 286.98
  C 243.44 296.63 214.43 294.25 191.59 280.64
  C 185.98 277.30 179.73 271.30 181.24 263.76
  C 182.79 256.05 197.50 234.69 206.64 237.28
  C 210.82 238.47 214.19 243.11 217.96 245.62
  Q 228.54 252.68 240.35 249.85
  Q 268.52 243.10 283.76 218.02
  C 305.29 182.55 283.31 144.07 242.82 141.45
  C 199.54 138.65 168.68 177.30 185.50 218.81
  Q 186.36 220.93 189.64 226.62
  A 1.29 1.29 0.0 0 1 189.76 227.57
  Q 189.49 228.63 188.81 229.80
  Q 180.95 243.39 170.87 254.28
  C 167.00 258.47 163.00 259.92 158.27 256.22
  Q 152.82 251.95 149.30 245.96
  C 137.88 226.52 132.67 204.63 136.15 182.50
  C 141.66 147.40 167.49 116.98 200.31 104.17
  C 244.48 86.93 291.32 100.33 320.67 137.34
  Z
  M 168.74 254.99
  Q 180.48 242.95 188.56 228.14
  A 1.12 1.10 -41.9 0 0 188.62 227.20
  C 187.74 224.95 186.13 222.33 185.43 220.78
  Q 173.02 193.38 186.96 169.08
  C 198.71 148.59 222.21 137.90 245.43 140.52
  C 266.97 142.95 284.92 155.44 291.37 176.65
  C 297.29 196.12 288.26 217.81 274.29 231.80
  Q 260.07 246.02 241.92 250.39
  C 229.34 253.41 221.43 250.08 212.13 242.01
  C 206.73 237.32 202.03 236.57 196.72 241.99
  Q 189.38 249.49 184.80 257.69
  C 178.47 269.03 184.52 276.04 194.29 281.24
  C 236.54 303.74 284.72 288.62 314.33 253.58
  C 337.21 226.49 343.33 191.95 331.08 158.70
  C 319.72 127.88 289.55 105.67 258.15 99.67
  C 228.46 93.99 198.09 101.61 174.54 119.97
  C 150.13 139.01 133.84 170.72 136.30 201.99
  Q 138.23 226.57 151.93 247.89
  C 155.19 252.98 162.34 261.54 168.74 254.99
  Z"
/>
<path fill="#7ca2a7" fill-opacity="0.996" d="
  M 673.71 202.37
  C 695.29 228.17 683.68 270.80 656.67 287.69
  C 639.37 298.50 617.90 300.46 599.14 292.07
  C 579.83 283.43 562.19 264.47 563.81 242.09
  Q 564.41 233.74 568.24 228.15
  C 577.91 214.02 599.36 216.32 606.94 231.26
  C 609.73 236.75 606.78 243.63 609.22 248.39
  C 611.78 253.39 620.20 255.28 625.34 254.12
  C 636.07 251.71 640.09 241.70 639.42 231.73
  C 638.74 221.69 630.40 214.46 622.74 208.02
  C 606.72 194.54 588.43 180.21 585.82 159.43
  C 582.47 132.85 597.01 110.51 621.52 101.05
  C 656.48 87.56 692.95 106.72 698.00 144.76
  C 701.71 172.64 662.32 173.91 655.66 153.36
  C 654.42 149.56 655.30 145.06 651.58 141.41
  C 645.32 135.26 631.96 139.49 629.40 147.68
  C 626.69 156.36 635.66 166.79 641.82 172.18
  C 656.07 184.62 664.32 191.15 673.71 202.37
  Z
  M 583.19 280.56
  Q 608.83 301.90 639.22 294.10
  C 663.56 287.86 678.58 269.62 682.78 244.49
  C 689.31 205.54 658.50 190.67 636.35 167.91
  Q 631.89 163.33 629.23 157.55
  C 621.46 140.64 647.52 130.02 654.37 143.38
  Q 655.04 144.68 655.94 149.75
  C 657.78 160.02 665.15 165.00 675.14 165.91
  C 696.03 167.82 700.02 151.92 694.90 135.33
  C 689.31 117.22 676.55 104.67 658.53 99.68
  C 629.86 91.74 595.49 108.58 587.99 138.25
  C 579.71 170.96 600.88 188.39 622.99 206.95
  C 631.92 214.44 641.13 222.59 640.51 235.18
  C 639.76 250.68 626.77 260.88 611.81 252.78
  C 604.64 248.90 608.88 239.93 606.93 233.65
  C 605.03 227.52 598.95 222.83 593.29 220.90
  C 582.92 217.37 571.98 221.82 567.28 231.83
  C 565.33 235.99 564.08 244.28 564.72 248.54
  Q 567.59 267.59 583.19 280.56
  Z"
/>
<path fill="#7ca2a7" fill-opacity="0.996" d="
  M 866.31 125.19
  C 890.12 150.46 891.53 184.40 871.73 212.25
  C 868.82 216.33 864.25 219.96 859.51 219.97
  Q 807.02 220.12 755.07 219.86
  Q 753.44 219.86 754.08 221.36
  C 759.73 234.74 772.22 246.60 787.22 247.19
  C 799.03 247.65 811.24 242.50 822.54 235.51
  C 824.42 234.34 827.89 233.25 830.52 233.99
  C 838.08 236.09 848.67 242.38 850.71 250.60
  C 855.04 268.06 838.10 282.27 824.07 287.37
  C 803.81 294.74 781.12 292.74 761.59 284.72
  C 739.42 275.61 721.11 257.40 711.30 235.70
  C 698.76 207.94 703.31 172.31 717.80 146.56
  C 748.15 92.59 822.68 78.86 866.31 125.19
  Z
  M 787.38 248.28
  C 771.50 247.25 758.17 235.16 752.71 220.68
  A 1.49 1.48 -10.4 0 1 754.10 218.67
  Q 806.54 218.82 858.31 218.73
  C 871.51 218.70 878.86 199.08 881.95 188.74
  C 894.80 145.83 858.42 106.86 818.25 99.76
  C 778.37 92.71 738.57 111.42 718.69 146.69
  C 703.22 174.15 699.19 213.64 715.66 242.31
  Q 738.47 282.01 783.55 289.86
  C 805.93 293.76 838.56 288.13 848.45 264.70
  C 854.85 249.55 844.62 239.88 831.40 235.32
  C 829.01 234.50 826.62 234.63 824.54 235.77
  C 813.58 241.73 800.30 249.12 787.38 248.28
  Z"
/>
<path fill="#13142c" d="
  M 583.19 280.56
  Q 567.59 267.59 564.72 248.54
  C 564.08 244.28 565.33 235.99 567.28 231.83
  C 571.98 221.82 582.92 217.37 593.29 220.90
  C 598.95 222.83 605.03 227.52 606.93 233.65
  C 608.88 239.93 604.64 248.90 611.81 252.78
  C 626.77 260.88 639.76 250.68 640.51 235.18
  C 641.13 222.59 631.92 214.44 622.99 206.95
  C 600.88 188.39 579.71 170.96 587.99 138.25
  C 595.49 108.58 629.86 91.74 658.53 99.68
  C 676.55 104.67 689.31 117.22 694.90 135.33
  C 700.02 151.92 696.03 167.82 675.14 165.91
  C 665.15 165.00 657.78 160.02 655.94 149.75
  Q 655.04 144.68 654.37 143.38
  C 647.52 130.02 621.46 140.64 629.23 157.55
  Q 631.89 163.33 636.35 167.91
  C 658.50 190.67 689.31 205.54 682.78 244.49
  C 678.58 269.62 663.56 287.86 639.22 294.10
  Q 608.83 301.90 583.19 280.56
  Z"
/>
<path fill="#13142c" d="
  M 168.74 254.99
  C 162.34 261.54 155.19 252.98 151.93 247.89
  Q 138.23 226.57 136.30 201.99
  C 133.84 170.72 150.13 139.01 174.54 119.97
  C 198.09 101.61 228.46 93.99 258.15 99.67
  C 289.55 105.67 319.72 127.88 331.08 158.70
  C 343.33 191.95 337.21 226.49 314.33 253.58
  C 284.72 288.62 236.54 303.74 194.29 281.24
  C 184.52 276.04 178.47 269.03 184.80 257.69
  Q 189.38 249.49 196.72 241.99
  C 202.03 236.57 206.73 237.32 212.13 242.01
  C 221.43 250.08 229.34 253.41 241.92 250.39
  Q 260.07 246.02 274.29 231.80
  C 288.26 217.81 297.29 196.12 291.37 176.65
  C 284.92 155.44 266.97 142.95 245.43 140.52
  C 222.21 137.90 198.71 148.59 186.96 169.08
  Q 173.02 193.38 185.43 220.78
  C 186.13 222.33 187.74 224.95 188.62 227.20
  A 1.12 1.10 -41.9 0 1 188.56 228.14
  Q 180.48 242.95 168.74 254.99
  Z"
/>
<path fill="#13142c" d="
  M 414.61 231.31
  A 0.30 0.30 0.0 0 0 415.18 231.35
  Q 436.16 183.28 459.94 136.69
  Q 461.24 134.15 463.79 127.44
  C 467.72 117.10 469.62 102.97 482.07 99.31
  Q 498.04 94.61 508.56 105.74
  C 518.89 116.66 514.31 129.88 507.77 142.29
  C 485.68 184.25 463.50 226.08 442.12 268.40
  C 433.86 284.76 422.23 292.90 403.51 288.94
  C 389.02 285.88 382.71 275.94 378.99 262.21
  Q 367.66 220.36 357.65 187.57
  C 354.35 176.74 349.67 164.44 346.68 153.57
  Q 343.42 141.72 340.55 129.76
  C 333.57 100.62 372.72 88.85 384.65 113.37
  Q 386.25 116.67 387.26 123.40
  Q 389.02 135.09 391.50 144.00
  Q 403.66 187.56 414.61 231.31
  Z"
/>
<path fill="#7ca2a7" fill-opacity="0.996" d="
  M 946.27 157.50
  Q 944.77 165.95 942.67 174.73
  Q 931.34 222.21 927.50 237.25
  Q 924.38 249.49 922.57 259.12
  Q 921.06 267.17 919.49 270.62
  C 912.62 285.67 896.21 291.89 882.14 282.03
  C 872.29 275.13 872.92 264.91 875.86 253.72
  Q 893.51 186.58 909.34 118.97
  C 910.11 115.67 910.65 112.08 912.63 109.32
  C 915.93 104.74 922.94 98.05 928.99 98.08
  Q 937.43 98.12 951.00 99.00
  C 958.22 99.46 964.96 100.03 971.01 103.30
  Q 982.54 109.53 985.02 123.73
  C 987.53 138.14 984.96 167.88 965.26 168.91
  Q 960.51 169.16 956.16 166.61
  C 952.80 164.63 950.29 160.38 947.61 157.15
  A 0.77 0.76 30.1 0 0 946.27 157.50
  Z
  M 875.88 257.42
  C 871.87 272.62 879.62 284.55 895.51 285.76
  C 910.69 286.91 918.73 273.38 921.32 260.28
  C 922.60 253.80 923.83 247.47 925.48 240.97
  Q 935.40 201.88 944.44 162.58
  C 944.85 160.79 944.66 158.05 945.79 156.24
  Q 946.60 154.95 947.66 156.03
  C 954.83 163.28 957.63 170.93 970.23 166.64
  C 983.99 161.95 985.42 138.72 984.50 127.01
  C 983.38 112.91 974.55 102.57 959.91 100.84
  Q 943.97 98.96 927.99 99.35
  Q 925.61 99.41 923.74 100.54
  C 916.75 104.80 912.29 109.38 910.38 117.65
  Q 894.21 187.80 875.88 257.42
  Z"
/>
<path fill="#13142c" d="
  M 752.71 220.68
  C 758.17 235.16 771.50 247.25 787.38 248.28
  C 800.30 249.12 813.58 241.73 824.54 235.77
  C 826.62 234.63 829.01 234.50 831.40 235.32
  C 844.62 239.88 854.85 249.55 848.45 264.70
  C 838.56 288.13 805.93 293.76 783.55 289.86
  Q 738.47 282.01 715.66 242.31
  C 699.19 213.64 703.22 174.15 718.69 146.69
  C 738.57 111.42 778.37 92.71 818.25 99.76
  C 858.42 106.86 894.80 145.83 881.95 188.74
  C 878.86 199.08 871.51 218.70 858.31 218.73
  Q 806.54 218.82 754.10 218.67
  A 1.49 1.48 -10.4 0 0 752.71 220.68
  Z
  M 825.30 146.06
  C 796.52 126.59 762.33 150.41 751.42 178.12
  A 0.88 0.88 0.0 0 0 752.17 179.32
  Q 759.06 179.86 766.44 179.90
  Q 794.48 180.02 822.52 180.30
  C 827.98 180.36 835.52 180.72 842.01 180.22
  A 1.28 1.27 86.2 0 0 843.19 178.86
  Q 841.69 157.15 825.30 146.06
  Z"
/>
<path fill="#7ca2a7" fill-opacity="0.996" d="
  M 514.90 287.10
  C 503.52 286.19 494.74 277.74 495.54 265.74
  Q 496.19 255.95 500.46 236.24
  C 507.41 204.15 513.31 175.49 520.73 147.80
  C 523.30 138.18 526.02 125.16 529.53 114.52
  C 535.26 97.11 560.28 92.78 571.24 107.73
  C 576.94 115.52 574.87 126.86 572.63 136.28
  C 568.53 153.55 563.96 170.78 560.04 188.01
  Q 554.83 210.96 549.35 233.84
  C 546.92 243.95 545.33 256.08 543.22 264.74
  C 540.14 277.39 528.37 288.18 514.90 287.10
  Z
  M 496.81 270.44
  C 498.01 279.57 505.58 285.00 514.18 285.98
  C 527.26 287.48 538.92 277.23 542.01 264.99
  Q 543.16 260.43 545.14 248.86
  C 548.11 231.55 552.94 214.41 556.82 197.27
  C 561.42 176.94 566.59 156.75 571.44 136.49
  C 573.60 127.48 576.19 115.93 570.40 108.06
  C 562.60 97.46 545.35 97.23 536.11 105.89
  Q 531.46 110.25 529.67 116.73
  C 520.18 151.19 512.86 183.85 502.38 231.72
  Q 499.69 244.02 497.68 256.43
  Q 496.19 265.64 496.81 270.44
  Z"
/>
<path fill="#13142c" d="
  M 895.51 285.76
  C 879.62 284.55 871.87 272.62 875.88 257.42
  Q 894.21 187.80 910.38 117.65
  C 912.29 109.38 916.75 104.80 923.74 100.54
  Q 925.61 99.41 927.99 99.35
  Q 943.97 98.96 959.91 100.84
  C 974.55 102.57 983.38 112.91 984.50 127.01
  C 985.42 138.72 983.99 161.95 970.23 166.64
  C 957.63 170.93 954.83 163.28 947.66 156.03
  Q 946.60 154.95 945.79 156.24
  C 944.66 158.05 944.85 160.79 944.44 162.58
  Q 935.40 201.88 925.48 240.97
  C 923.83 247.47 922.60 253.80 921.32 260.28
  C 918.73 273.38 910.69 286.91 895.51 285.76
  Z"
/>
<path fill="#13142c" d="
  M 514.18 285.98
  C 505.58 285.00 498.01 279.57 496.81 270.44
  Q 496.19 265.64 497.68 256.43
  Q 499.69 244.02 502.38 231.72
  C 512.86 183.85 520.18 151.19 529.67 116.73
  Q 531.46 110.25 536.11 105.89
  C 545.35 97.23 562.60 97.46 570.40 108.06
  C 576.19 115.93 573.60 127.48 571.44 136.49
  C 566.59 156.75 561.42 176.94 556.82 197.27
  C 552.94 214.41 548.11 231.55 545.14 248.86
  Q 543.16 260.43 542.01 264.99
  C 538.92 277.23 527.26 287.48 514.18 285.98
  Z"
/>
<path fill="#ebe7f6" d="
  M 460.73 99.84
  L 462.31 100.03
  A 1.15 1.14 73.7 0 1 463.09 100.46
  Q 463.87 101.48 463.29 103.23
  Q 459.56 102.04 460.73 99.84
  Z"
/>
<path fill="#7ca2a7" fill-opacity="0.996" d="
  M 396.54 102.02
  Q 397.16 101.91 397.52 102.01
  Q 398.14 102.18 397.57 102.48
  L 396.06 103.30
  Q 396.60 102.57 396.54 102.02
  Z"
/>
<path fill="#7ca2a7" fill-opacity="0.996" d="
  M 751.42 178.12
  C 762.33 150.41 796.52 126.59 825.30 146.06
  Q 841.69 157.15 843.19 178.86
  A 1.28 1.27 86.2 0 1 842.01 180.22
  C 835.52 180.72 827.98 180.36 822.52 180.30
  Q 794.48 180.02 766.44 179.90
  Q 759.06 179.86 752.17 179.32
  A 0.88 0.88 0.0 0 1 751.42 178.12
  Z
  M 817.90 143.17
  C 791.41 132.00 762.60 153.00 752.88 176.99
  A 1.04 1.04 0.0 0 0 753.83 178.42
  L 841.17 179.44
  Q 842.27 179.45 842.17 178.36
  Q 839.89 152.44 817.90 143.17
  Z"
/>
<path fill="#7ca2a7" fill-opacity="0.996" d="
  M 265.45 150.55
  A 0.28 0.28 0.0 0 1 265.23 151.04
  L 262.75 150.62
  A 0.22 0.22 0.0 0 1 262.70 150.20
  Q 264.22 149.56 265.45 150.55
  Z"
/>
<path fill="#7ca2a7" fill-opacity="0.996" d="
  M 266.65 166.75
  Q 263.58 166.28 261.98 167.30
  L 256.69 167.75
  Q 257.21 167.21 255.52 166.59
  Q 260.88 163.41 266.65 166.75
  Z"
/>
<path fill="#ebe7f6" d="
  M 266.65 166.75
  L 270.13 168.02
  Q 270.61 168.20 270.80 168.67
  C 273.84 176.37 277.54 182.35 274.80 191.13
  C 270.09 206.28 260.47 216.00 250.27 227.01
  C 242.27 235.64 230.78 234.85 222.49 226.68
  C 213.54 217.85 195.32 195.84 199.17 182.30
  C 199.92 179.65 200.73 176.16 201.97 174.01
  C 206.59 165.95 217.12 166.40 225.17 168.28
  Q 225.76 168.42 225.75 169.03
  Q 225.75 169.17 225.75 169.32
  A 0.44 0.43 9.7 0 0 226.06 169.75
  C 232.14 171.62 232.83 177.88 237.38 181.10
  Q 237.77 181.78 238.06 181.87
  Q 240.12 183.05 240.59 181.33
  C 242.37 174.78 249.24 168.48 255.52 166.59
  Q 257.21 167.21 256.69 167.75
  C 248.64 171.09 243.66 178.27 239.21 185.47
  A 0.97 0.97 0.0 0 1 237.56 185.47
  C 235.23 181.67 232.55 177.14 229.54 174.34
  C 223.72 168.94 213.77 166.44 207.02 171.50
  C 198.62 177.79 199.71 191.03 204.27 199.29
  C 209.25 208.31 222.12 228.48 232.67 230.92
  Q 241.02 232.86 248.06 226.31
  Q 262.19 213.17 270.64 197.10
  C 275.55 187.75 275.50 169.13 261.98 167.30
  Q 263.58 166.28 266.65 166.75
  Z"
/>
<path fill="#db1a7c" d="
  M 261.98 167.30
  C 275.50 169.13 275.55 187.75 270.64 197.10
  Q 262.19 213.17 248.06 226.31
  Q 241.02 232.86 232.67 230.92
  C 222.12 228.48 209.25 208.31 204.27 199.29
  C 199.71 191.03 198.62 177.79 207.02 171.50
  C 213.77 166.44 223.72 168.94 229.54 174.34
  C 232.55 177.14 235.23 181.67 237.56 185.47
  A 0.97 0.97 0.0 0 0 239.21 185.47
  C 243.66 178.27 248.64 171.09 256.69 167.75
  L 261.98 167.30
  Z"
/>
<path fill="#7ca2a7" fill-opacity="0.996" d="
  M 242.22 175.54
  Q 242.10 176.24 241.40 176.29
  Q 240.36 176.37 239.87 175.41
  Q 239.60 174.89 240.17 174.77
  L 241.70 174.44
  Q 242.44 174.28 242.31 175.03
  L 242.22 175.54
  Z"
/>
<path fill="#7ca2a7" fill-opacity="0.996" d="
  M 238.06 181.87
  Q 237.77 181.78 237.38 181.10
  Q 238.62 179.73 239.43 180.05
  A 0.43 0.43 0.0 0 1 239.52 180.79
  L 238.06 181.87
  Z"
/>
</svg>
