<?xml version="1.0" encoding="UTF-8" standalone="no"?>
<!DOCTYPE svg PUBLIC "-//W3C//DTD SVG 1.1//EN" "http://www.w3.org/Graphics/SVG/1.1/DTD/svg11.dtd">
<svg xmlns="http://www.w3.org/2000/svg" version="1.1" viewBox="0.00 0.00 1024.00 1024.00">
<g stroke-width="2.00" fill="none" stroke-linecap="butt">
<path stroke="#a28ea7" stroke-opacity="0.996" vector-effect="non-scaling-stroke" d="
  M 892.22 646.82
  Q 892.96 646.80 892.71 646.04"
/>
<path stroke="#4b5c6e" stroke-opacity="0.996" vector-effect="non-scaling-stroke" d="
  M 892.71 646.04
  C 900.25 648.38 915.34 649.61 914.77 638.00
  C 913.38 609.56 912.21 580.89 909.67 552.53
  C 901.09 456.94 883.86 362.25 848.05 272.95
  C 835.91 242.69 819.94 213.68 800.48 187.53
  Q 783.47 164.66 769.81 150.45
  C 707.11 85.22 619.86 50.65 529.73 44.81
  C 490.75 42.28 452.86 46.64 415.15 55.73
  C 325.14 77.42 248.91 137.56 203.56 218.22
  C 173.39 271.87 154.23 331.10 140.40 390.43
  Q 115.92 495.42 112.07 604.18
  C 112.03 605.45 112.39 606.86 112.48 608.16"
/>
<path stroke="#6a4666" vector-effect="non-scaling-stroke" d="
  M 892.71 646.04
  Q 890.62 644.57 888.36 644.71
  A 1.08 1.08 0.0 0 1 887.21 643.67
  C 885.30 589.05 881.61 534.59 873.87 480.43
  Q 871.10 461.03 866.84 442.45"
/>
<path stroke="#788692" vector-effect="non-scaling-stroke" d="
  M 866.84 442.45
  C 848.26 340.41 818.01 232.24 738.68 159.32
  C 668.38 94.69 573.93 67.54 479.05 74.05
  C 397.09 79.67 320.89 114.64 266.88 178.52"
/>
<path stroke="#633a5c" vector-effect="non-scaling-stroke" d="
  M 266.88 178.52
  Q 254.96 191.57 244.91 206.43
  C 216.86 247.90 196.54 295.13 182.22 342.99
  C 165.50 398.88 154.67 456.44 147.20 514.24
  Q 141.23 560.40 139.96 606.93
  Q 139.81 612.34 133.94 613.97
  A 1.29 1.29 0.0 0 0 134.29 616.50
  L 136.95 616.50
  A 0.64 0.63 -18.9 0 1 137.45 616.74
  L 148.51 631.03
  Q 148.78 631.39 148.86 631.83
  Q 149.24 633.92 150.49 635.63
  Q 150.82 636.08 150.91 636.63
  Q 151.87 642.07 149.79 647.22"
/>
<path stroke="#b96b95" vector-effect="non-scaling-stroke" d="
  M 820.54 649.59
  L 820.49 650.22"
/>
<path stroke="#b96b95" vector-effect="non-scaling-stroke" d="
  M 538.90 645.46
  Q 538.49 645.01 540.36 644.40"
/>
<path stroke="#6a4666" vector-effect="non-scaling-stroke" d="
  M 540.36 644.40
  C 540.85 682.39 573.39 695.12 603.79 704.01
  Q 628.77 711.31 654.41 715.52
  C 704.60 723.76 758.44 717.11 801.59 689.36
  C 812.52 682.33 830.77 668.40 817.59 653.60
  C 813.81 649.35 804.15 654.91 800.47 657.46
  Q 790.48 664.36 780.39 671.10
  Q 774.44 675.08 769.16 676.78"
/>
<path stroke="#cfb7cc" vector-effect="non-scaling-stroke" d="
  M 769.16 676.78
  Q 761.38 677.20 754.04 677.79
  Q 744.35 678.57 738.93 678.76
  C 691.15 680.46 647.02 677.05 602.94 663.96
  C 593.76 661.24 583.37 657.88 575.62 652.13
  C 563.46 643.11 578.85 632.26 586.44 628.94
  C 627.05 611.17 669.24 593.06 712.67 580.06
  Q 713.30 579.87 713.52 579.53
  Q 713.81 579.07 713.70 578.46"
/>
<path stroke="#6a4666" vector-effect="non-scaling-stroke" d="
  M 713.70 578.46
  Q 726.18 575.25 738.68 572.18
  C 746.44 570.27 754.32 566.76 753.97 557.79
  C 753.64 549.35 742.72 546.66 736.08 547.71
  Q 702.71 552.97 670.11 560.81"
/>
<path stroke="#b96b95" vector-effect="non-scaling-stroke" d="
  M 670.11 560.81
  Q 653.34 549.82 632.25 540.99
  Q 592.44 524.31 554.39 513.39
  C 545.37 510.80 536.58 509.04 528.00 508.75
  C 509.21 508.12 485.64 508.22 463.73 508.04
  Q 433.24 507.78 402.99 511.90
  Q 401.21 512.14 398.45 514.60"
/>
<path stroke="#6a4666" vector-effect="non-scaling-stroke" d="
  M 398.45 514.60
  C 357.18 487.01 314.07 463.63 269.95 440.98"
/>
<path stroke="#b96b95" vector-effect="non-scaling-stroke" d="
  M 269.95 440.98
  Q 271.98 439.37 271.29 435.43
  C 268.76 420.99 269.65 403.22 269.56 390.39
  C 269.30 355.11 269.03 319.61 273.01 284.50
  C 275.12 265.87 278.65 246.99 284.91 229.26
  C 296.52 196.38 313.14 160.00 337.23 133.95
  Q 337.52 133.63 337.39 133.23
  Q 337.12 132.43 336.79 132.20"
/>
<path stroke="#633a5c" vector-effect="non-scaling-stroke" d="
  M 269.95 440.98
  Q 263.44 437.61 256.68 434.58
  C 246.55 430.04 237.08 435.13 236.64 446.53
  Q 236.48 450.63 235.77 455.40"
/>
<path stroke="#c8abc2" vector-effect="non-scaling-stroke" d="
  M 235.77 455.40
  Q 234.32 452.99 232.09 454.72
  A 1.72 1.71 57.9 0 0 231.61 456.84
  Q 234.62 462.87 239.70 466.61
  C 249.80 474.05 260.90 480.46 271.45 487.06"
/>
<path stroke="#b96b95" vector-effect="non-scaling-stroke" d="
  M 271.45 487.06
  C 268.89 488.90 271.48 493.01 271.90 495.28
  C 277.58 526.69 285.53 556.40 298.55 585.95
  Q 302.13 594.06 313.61 613.13
  A 1.07 1.07 0.0 0 1 313.72 614.02
  L 313.22 615.65"
/>
<path stroke="#633a5c" vector-effect="non-scaling-stroke" d="
  M 313.22 615.65
  C 307.05 612.31 297.25 605.54 290.66 610.67
  C 282.56 616.97 283.70 626.04 290.63 632.39
  C 298.04 639.18 306.27 642.33 314.58 646.57
  C 368.88 674.29 427.79 693.73 487.50 697.98
  C 505.12 699.24 521.97 691.44 523.96 672.03
  Q 524.87 663.21 524.15 658.31
  C 523.18 651.67 522.55 644.65 520.27 638.53
  C 513.67 620.79 502.23 605.10 489.43 591.31
  C 462.22 562.00 432.28 538.30 398.45 514.60"
/>
<path stroke="#633a5c" vector-effect="non-scaling-stroke" d="
  M 670.11 560.81
  C 640.91 568.24 613.34 577.12 586.70 591.41
  C 567.17 601.88 542.50 620.04 540.36 644.40"
/>
<path stroke="#c8abc2" vector-effect="non-scaling-stroke" d="
  M 291.00 646.71
  Q 290.75 646.57 290.55 646.17
  Q 290.40 645.87 290.07 645.87
  L 167.40 646.20
  Q 167.00 646.20 167.01 646.60
  L 167.01 647.39"
/>
<path stroke="#cfb7cc" vector-effect="non-scaling-stroke" d="
  M 866.84 442.45
  Q 865.47 441.28 864.74 438.80
  Q 859.55 421.10 854.50 403.37
  C 843.48 364.70 829.14 326.58 812.71 292.80
  C 790.10 246.32 762.65 205.37 724.12 170.99
  C 694.25 144.33 658.13 125.34 619.24 113.24
  Q 545.79 90.39 471.05 95.90
  C 426.02 99.22 377.72 109.79 336.79 132.20"
/>
<path stroke="#c8abc2" vector-effect="non-scaling-stroke" d="
  M 336.79 132.20
  C 311.01 145.61 288.49 159.93 268.43 178.98
  Q 268.05 179.34 267.56 179.16
  Q 266.99 178.95 266.88 178.52"
/>
<path stroke="#6a4666" vector-effect="non-scaling-stroke" d="
  M 313.22 615.65
  Q 354.14 639.62 399.07 652.65"
/>
<path stroke="#788692" vector-effect="non-scaling-stroke" d="
  M 399.07 652.65
  Q 437.05 664.04 475.06 668.44
  Q 482.86 669.34 491.61 669.17
  C 502.41 668.96 498.88 655.96 496.38 650.02"
/>
<path stroke="#6a4666" vector-effect="non-scaling-stroke" d="
  M 496.38 650.02
  Q 495.20 645.71 493.23 644.11"
/>
<path stroke="#788692" vector-effect="non-scaling-stroke" d="
  M 493.23 644.11
  Q 490.50 636.63 485.54 629.95
  C 465.46 602.86 440.04 579.07 413.25 558.72
  C 368.27 524.57 318.68 493.37 267.10 470.15
  Q 251.08 462.94 235.77 455.40"
/>
<path stroke="#788692" vector-effect="non-scaling-stroke" d="
  M 713.70 578.46
  C 676.34 585.74 643.78 594.21 609.67 609.64
  C 597.33 615.22 575.22 627.22 569.48 639.98
  C 562.40 655.72 574.75 664.11 587.00 669.50
  C 615.99 682.25 648.55 687.99 679.96 690.14
  Q 720.05 692.87 758.68 681.19
  Q 763.62 679.69 769.16 676.78"
/>
<path stroke="#cfb7cc" vector-effect="non-scaling-stroke" d="
  M 493.23 644.11
  Q 486.82 638.18 477.41 627.84
  Q 467.30 616.74 450.68 602.56
  C 432.68 587.20 410.44 571.16 388.34 557.09
  Q 348.88 531.96 300.81 504.69
  Q 294.38 501.03 271.45 487.06"
/>
<path stroke="#cfb7cc" vector-effect="non-scaling-stroke" d="
  M 496.38 650.02
  Q 480.33 657.15 461.74 657.18
  C 440.42 657.21 420.66 654.21 400.07 651.85
  Q 399.27 651.76 399.07 652.65"
/>
<path stroke="#cfb7cc" vector-effect="non-scaling-stroke" d="
  M 459.18 782.71
  Q 461.18 785.55 463.57 786.65"
/>
<path stroke="#6a4666" vector-effect="non-scaling-stroke" d="
  M 539.42 344.81
  C 530.10 343.29 521.38 346.21 513.23 351.10
  Q 512.81 351.36 512.41 351.06
  C 506.06 346.33 495.05 345.42 487.88 345.89"
/>
<path stroke="#cfb7cc" vector-effect="non-scaling-stroke" d="
  M 487.88 345.89
  C 490.27 296.19 456.33 243.77 405.40 234.35
  C 390.19 231.54 375.30 232.94 361.45 239.43
  C 331.06 253.68 313.99 282.84 312.12 316.00
  C 309.86 356.20 336.20 395.71 374.93 408.08
  C 405.29 417.78 437.64 407.55 460.30 386.06
  Q 463.59 382.94 466.15 381.20"
/>
<path stroke="#6a4666" vector-effect="non-scaling-stroke" d="
  M 466.15 381.20
  C 476.15 398.69 492.50 414.35 506.08 427.59
  C 510.52 431.92 514.04 433.39 518.78 428.51
  C 536.13 410.65 550.27 397.56 558.58 376.81"
/>
<path stroke="#cfb7cc" vector-effect="non-scaling-stroke" d="
  M 558.58 376.81
  C 561.20 379.46 563.95 381.90 566.58 384.59
  C 593.88 412.63 636.02 421.95 669.59 398.88
  C 693.94 382.14 708.25 353.33 710.05 324.22
  C 712.24 288.67 690.91 250.65 657.42 237.34
  C 600.23 214.60 535.64 273.78 538.90 330.80
  Q 539.30 337.73 539.42 344.81"
/>
<path stroke="#788692" vector-effect="non-scaling-stroke" d="
  M 558.58 376.81
  C 562.93 360.21 556.54 348.20 539.42 344.81"
/>
<path stroke="#788692" vector-effect="non-scaling-stroke" d="
  M 487.88 345.89
  Q 481.78 347.15 478.33 348.59
  C 467.89 352.94 460.56 364.81 464.40 376.20
  Q 465.30 378.86 466.15 381.20"
/>
<path stroke="#788692" vector-effect="non-scaling-stroke" d="
  M 572.77 298.54
  C 560.87 329.89 570.10 368.06 603.35 382.03
  C 620.50 389.24 640.38 384.75 653.19 371.40
  C 667.81 356.14 674.42 335.33 669.79 314.50
  C 663.99 288.42 645.64 267.51 617.99 265.39
  C 596.39 263.73 579.93 279.68 572.77 298.54"
/>
<path stroke="#788692" vector-effect="non-scaling-stroke" d="
  M 353.91 330.31
  C 354.95 363.63 385.98 396.20 421.19 382.23
  C 455.41 368.65 465.03 326.96 451.17 295.58
  C 440.07 270.43 415.87 258.07 389.52 269.72
  C 366.34 279.96 353.13 305.30 353.91 330.31"
/>
<path stroke="#788692" vector-effect="non-scaling-stroke" d="
  M 389.19 338.31
  C 406.28 352.53 425.09 322.74 422.64 308.19
  C 420.80 297.31 411.59 292.10 401.40 295.06
  C 386.13 299.49 375.20 326.67 389.19 338.31"
/>
<path stroke="#788692" vector-effect="non-scaling-stroke" d="
  M 605.10 301.16
  C 593.38 319.21 621.37 357.02 638.49 335.66
  C 649.11 322.40 636.72 296.27 619.87 294.40
  Q 610.18 293.33 605.10 301.16"
/>
<path stroke="#84472a" vector-effect="non-scaling-stroke" d="
  M 508.15 405.27
  C 508.91 406.04 510.17 407.87 511.45 408.66
  Q 511.95 408.97 512.33 408.53
  Q 520.87 398.68 528.99 388.49
  C 530.70 386.33 532.80 383.18 531.85 380.29
  C 529.94 374.52 522.27 370.28 516.53 369.14
  Q 505.32 366.91 495.19 371.53
  C 479.94 378.50 502.53 399.58 508.15 405.27"
/>
<path stroke="#4b5c6e" stroke-opacity="0.996" vector-effect="non-scaling-stroke" d="
  M 147.79 703.26
  C 144.28 678.05 110.15 681.55 104.50 703.50
  C 84.72 780.37 64.08 857.01 44.79 934.01
  Q 43.08 940.83 41.71 947.73
  C 39.33 959.67 48.61 969.37 59.75 971.76
  C 68.66 973.67 76.05 971.21 85.01 968.55
  Q 115.31 959.57 123.69 956.69
  C 129.70 954.62 137.84 950.95 139.28 944.53
  C 140.99 936.88 132.13 927.79 126.20 924.36
  C 117.51 919.34 107.26 923.31 98.42 924.99
  C 93.92 925.84 93.39 921.94 94.16 918.54
  C 99.47 895.04 104.96 871.58 111.35 848.34
  Q 129.51 782.23 146.30 715.76
  Q 148.38 707.52 147.79 703.26"
/>
<path stroke="#4b5c6e" stroke-opacity="0.996" vector-effect="non-scaling-stroke" d="
  M 548.97 713.45
  C 532.63 726.66 537.51 754.27 560.79 756.52
  Q 569.86 757.39 572.24 757.00
  C 583.65 755.16 592.55 747.00 593.47 735.38
  C 595.37 711.26 566.60 699.21 548.97 713.45"
/>
<path stroke="#6a4666" vector-effect="non-scaling-stroke" d="
  M 414.60 914.27
  Q 403.84 871.15 391.81 828.19
  Q 389.57 820.19 387.70 809.29
  Q 385.78 798.14 384.17 795.00
  C 377.98 782.94 360.50 779.86 349.76 787.04
  C 336.71 795.77 339.08 807.27 342.73 821.92
  Q 346.83 838.43 352.30 854.53
  C 362.41 884.33 370.80 914.83 379.14 945.17
  C 382.03 955.67 385.90 964.86 396.48 969.52
  C 414.87 977.62 432.32 971.37 441.28 953.05
  C 462.49 909.70 485.81 867.43 508.02 824.60
  Q 512.56 815.84 514.24 808.74
  C 517.02 797.04 508.75 784.27 497.05 781.66
  C 482.43 778.41 471.66 785.36 467.43 799.46
  C 464.56 809.02 461.26 817.09 456.37 826.76
  Q 434.53 869.90 415.21 914.32
  A 0.32 0.32 0.0 0 1 414.60 914.27"
/>
<path stroke="#4b5c6e" stroke-opacity="0.996" vector-effect="non-scaling-stroke" d="
  M 227.76 781.51
  C 192.24 785.36 162.40 806.05 146.43 837.44
  C 131.43 866.95 133.24 898.93 149.49 927.29
  C 152.82 933.12 161.90 946.20 169.77 937.50
  Q 179.54 926.69 187.99 912.67
  Q 189.18 910.70 188.02 908.70
  C 161.99 863.86 200.99 815.43 249.13 824.09
  C 286.90 830.88 305.36 867.88 284.50 901.51
  Q 272.25 921.26 252.83 929.84
  C 242.24 934.52 228.80 937.13 218.58 930.17
  C 212.61 926.11 206.18 916.52 198.03 923.78
  Q 189.90 931.02 184.56 941.06
  C 180.99 947.79 180.90 953.68 186.73 958.75
  C 199.25 969.65 218.38 974.56 234.58 974.90
  C 282.74 975.93 331.13 935.52 336.54 886.99
  C 339.09 864.08 333.51 837.00 318.32 818.92
  C 295.40 791.64 263.56 777.64 227.76 781.51"
/>
<path stroke="#4b5c6e" stroke-opacity="0.996" vector-effect="non-scaling-stroke" d="
  M 587.19 825.16
  C 581.40 855.80 601.91 872.33 622.79 889.75
  C 633.30 898.52 643.15 907.77 639.91 922.80
  C 637.39 934.46 626.70 941.93 615.09 937.11
  C 602.55 931.90 610.17 925.14 606.70 915.94
  C 600.97 900.74 578.23 898.17 569.06 911.73
  C 561.75 922.53 564.33 940.04 571.34 950.43
  C 606.83 1003.05 685.78 979.19 683.59 914.92
  C 683.04 898.82 674.68 885.61 662.56 874.94
  Q 651.40 865.11 640.38 855.12
  C 632.80 848.26 621.38 834.46 632.29 824.73
  C 640.27 817.62 653.85 818.67 655.64 831.38
  C 657.53 844.87 667.20 849.02 679.74 848.88
  C 698.87 848.68 699.05 829.42 694.31 816.26
  C 685.15 790.81 660.61 776.59 633.67 781.60
  C 610.56 785.89 591.69 801.35 587.19 825.16"
/>
<path stroke="#4b5c6e" stroke-opacity="0.996" vector-effect="non-scaling-stroke" d="
  M 828.60 967.41
  C 838.08 963.19 846.30 955.03 849.28 944.88
  C 853.37 930.93 844.90 924.45 833.72 919.28
  Q 828.31 916.78 823.92 919.25
  C 807.42 928.54 788.19 937.27 770.55 925.69
  C 762.50 920.40 756.16 912.86 752.73 903.71
  A 1.45 1.45 0.0 0 1 754.09 901.75
  Q 806.03 901.75 858.29 901.75
  C 863.75 901.75 867.70 899.41 870.72 895.19
  C 888.53 870.26 889.83 838.70 869.95 813.80
  C 854.79 794.80 833.02 783.29 808.82 781.57
  C 758.15 777.97 715.99 812.93 706.98 862.23
  C 702.85 884.78 705.26 908.44 717.48 928.28
  Q 735.45 957.44 766.78 968.61
  C 786.58 975.68 809.30 976.01 828.60 967.41"
/>
<path stroke="#4b5c6e" stroke-opacity="0.996" vector-effect="non-scaling-stroke" d="
  M 946.86 838.74
  Q 947.31 838.83 948.12 839.42
  Q 948.64 839.80 949.09 840.44
  C 951.87 844.43 954.89 848.60 959.66 850.04
  C 980.69 856.40 985.35 827.24 984.73 813.89
  C 983.97 797.35 976.43 785.63 959.21 783.75
  Q 945.49 782.25 929.74 782.12
  C 921.78 782.06 912.55 791.28 910.84 798.66
  Q 895.26 866.20 877.75 933.27
  C 876.44 938.28 874.46 944.77 874.77 949.02
  C 876.39 971.22 903.85 975.18 915.59 958.30
  C 921.77 949.42 922.57 935.61 924.64 927.43
  Q 933.65 891.82 942.17 856.09
  Q 944.10 848.02 945.34 839.79
  Q 945.54 838.45 946.86 838.74"
/>
<path stroke="#4b5c6e" stroke-opacity="0.996" vector-effect="non-scaling-stroke" d="
  M 753.56 862.71
  L 842.09 863.44
  Q 843.32 863.45 843.23 862.23
  C 841.92 842.90 830.71 827.55 811.46 822.95
  C 788.04 817.35 763.66 835.88 753.79 855.68
  C 753.11 857.04 751.67 859.28 751.78 861.02
  Q 751.89 862.69 753.56 862.71"
/>
<path stroke="#4b5c6e" stroke-opacity="0.996" vector-effect="non-scaling-stroke" d="
  M 496.74 947.73
  C 494.59 965.08 512.90 973.66 526.87 966.74
  C 541.06 959.72 542.42 947.20 544.95 931.99
  Q 546.91 920.18 557.93 876.30
  C 558.42 874.34 558.64 871.86 559.09 870.07
  Q 565.97 842.88 572.25 815.55
  C 575.47 801.52 574.74 787.38 558.05 783.48
  C 545.92 780.64 533.94 786.53 530.08 798.82
  C 526.99 808.68 524.29 821.03 522.25 828.72
  C 515.50 854.18 509.95 881.14 502.66 913.67
  Q 498.86 930.57 496.74 947.73"
/>
<path stroke="#dc89ba" vector-effect="non-scaling-stroke" d="
  M 237.34 867.86
  Q 235.63 865.71 233.48 862.29
  Q 227.71 853.10 217.67 851.99
  C 211.07 851.26 204.44 854.46 202.19 860.78
  C 196.34 877.17 211.21 894.40 220.62 905.39
  C 229.37 915.62 238.27 918.08 248.93 908.34
  C 258.20 899.88 272.18 883.10 273.68 870.30
  C 274.53 862.97 271.65 851.71 262.51 850.79
  C 251.88 849.72 244.58 859.16 239.82 867.66
  Q 238.73 869.61 237.34 867.86"
/>
</g>
<path fill="#83a5b0" fill-opacity="0.992" d="
  M 892.22 646.82
  Q 892.96 646.80 892.71 646.04
  C 900.25 648.38 915.34 649.61 914.77 638.00
  C 913.38 609.56 912.21 580.89 909.67 552.53
  C 901.09 456.94 883.86 362.25 848.05 272.95
  C 835.91 242.69 819.94 213.68 800.48 187.53
  Q 783.47 164.66 769.81 150.45
  C 707.11 85.22 619.86 50.65 529.73 44.81
  C 490.75 42.28 452.86 46.64 415.15 55.73
  C 325.14 77.42 248.91 137.56 203.56 218.22
  C 173.39 271.87 154.23 331.10 140.40 390.43
  Q 115.92 495.42 112.07 604.18
  C 112.03 605.45 112.39 606.86 112.48 608.16
  L 112.09 609.02
  Q 111.62 610.05 111.54 608.92
  C 111.40 606.96 111.01 604.90 111.08 603.01
  C 114.37 512.77 128.42 423.85 153.66 337.18
  C 165.65 296.03 179.80 260.05 199.95 222.95
  C 249.43 131.84 335.04 67.79 437.83 49.89
  Q 448.89 47.96 460.02 46.37
  C 507.02 39.65 554.19 43.22 601.22 54.58
  C 668.68 70.89 729.22 105.43 776.47 156.02
  Q 782.59 162.58 795.50 179.25
  C 818.75 209.29 837.21 242.02 851.06 277.69
  C 863.59 309.93 874.38 342.62 882.38 375.72
  C 896.56 434.43 905.18 492.84 910.98 553.25
  Q 913.46 579.02 915.65 636.11
  Q 915.85 641.34 914.50 643.68
  C 911.02 649.75 900.60 648.49 894.66 647.83
  C 893.73 647.73 893.01 647.27 892.22 646.82
  Z"
/>
<path fill="#13142c" d="
  M 892.71 646.04
  Q 890.62 644.57 888.36 644.71
  A 1.08 1.08 0.0 0 1 887.21 643.67
  C 885.30 589.05 881.61 534.59 873.87 480.43
  Q 871.10 461.03 866.84 442.45
  C 848.26 340.41 818.01 232.24 738.68 159.32
  C 668.38 94.69 573.93 67.54 479.05 74.05
  C 397.09 79.67 320.89 114.64 266.88 178.52
  Q 254.96 191.57 244.91 206.43
  C 216.86 247.90 196.54 295.13 182.22 342.99
  C 165.50 398.88 154.67 456.44 147.20 514.24
  Q 141.23 560.40 139.96 606.93
  Q 139.81 612.34 133.94 613.97
  A 1.29 1.29 0.0 0 0 134.29 616.50
  L 136.95 616.50
  A 0.64 0.63 -18.9 0 1 137.45 616.74
  L 148.51 631.03
  Q 148.78 631.39 148.86 631.83
  Q 149.24 633.92 150.49 635.63
  Q 150.82 636.08 150.91 636.63
  Q 151.87 642.07 149.79 647.22
  L 146.38 647.24
  Q 145.82 647.24 146.05 646.73
  C 148.25 641.71 145.93 636.37 142.32 632.58
  A 0.19 0.19 0.0 0 0 142.02 632.81
  L 142.21 633.13
  Q 142.43 633.51 142.01 633.38
  L 141.52 633.22
  Q 141.35 633.17 141.41 633.00
  Q 141.46 632.88 141.50 632.75
  Q 141.52 632.68 141.40 632.59
  Q 137.92 629.81 136.41 625.58
  A 1.68 1.67 5.9 0 0 135.70 624.71
  C 131.86 622.40 133.13 620.33 132.44 616.68
  Q 132.35 616.21 131.95 615.94
  C 130.31 614.88 129.14 614.11 128.04 612.30
  C 124.96 607.17 118.10 607.18 112.48 608.16
  C 112.39 606.86 112.03 605.45 112.07 604.18
  Q 115.92 495.42 140.40 390.43
  C 154.23 331.10 173.39 271.87 203.56 218.22
  C 248.91 137.56 325.14 77.42 415.15 55.73
  C 452.86 46.64 490.75 42.28 529.73 44.81
  C 619.86 50.65 707.11 85.22 769.81 150.45
  Q 783.47 164.66 800.48 187.53
  C 819.94 213.68 835.91 242.69 848.05 272.95
  C 883.86 362.25 901.09 456.94 909.67 552.53
  C 912.21 580.89 913.38 609.56 914.77 638.00
  C 915.34 649.61 900.25 648.38 892.71 646.04
  Z"
/>
<path fill="#ddf7f8" d="
  M 866.84 442.45
  Q 865.47 441.28 864.74 438.80
  Q 859.55 421.10 854.50 403.37
  C 843.48 364.70 829.14 326.58 812.71 292.80
  C 790.10 246.32 762.65 205.37 724.12 170.99
  C 694.25 144.33 658.13 125.34 619.24 113.24
  Q 545.79 90.39 471.05 95.90
  C 426.02 99.22 377.72 109.79 336.79 132.20
  C 311.01 145.61 288.49 159.93 268.43 178.98
  Q 268.05 179.34 267.56 179.16
  Q 266.99 178.95 266.88 178.52
  C 320.89 114.64 397.09 79.67 479.05 74.05
  C 573.93 67.54 668.38 94.69 738.68 159.32
  C 818.01 232.24 848.26 340.41 866.84 442.45
  Z"
/>
<path fill="#c0779f" d="
  M 866.84 442.45
  Q 871.10 461.03 873.87 480.43
  C 881.61 534.59 885.30 589.05 887.21 643.67
  A 1.08 1.08 0.0 0 0 888.36 644.71
  Q 890.62 644.57 892.71 646.04
  Q 892.96 646.80 892.22 646.82
  L 890.71 646.17
  Q 890.28 645.97 889.85 646.19
  Q 886.58 647.81 881.06 647.79
  C 854.27 647.70 835.21 646.85 819.87 648.44
  Q 819.19 648.51 819.65 649.02
  Q 819.94 649.33 820.54 649.59
  L 820.49 650.22
  Q 818.74 649.98 817.36 650.60
  A 0.42 0.42 0.0 0 0 817.24 651.28
  C 827.24 661.37 823.49 672.95 813.79 681.28
  C 782.63 708.04 739.83 718.19 699.68 719.90
  Q 686.95 720.45 666.10 717.91
  Q 630.00 713.53 593.74 701.75
  C 570.47 694.18 549.69 684.29 541.58 660.24
  Q 540.21 656.20 538.90 645.46
  Q 538.49 645.01 540.36 644.40
  C 540.85 682.39 573.39 695.12 603.79 704.01
  Q 628.77 711.31 654.41 715.52
  C 704.60 723.76 758.44 717.11 801.59 689.36
  C 812.52 682.33 830.77 668.40 817.59 653.60
  C 813.81 649.35 804.15 654.91 800.47 657.46
  Q 790.48 664.36 780.39 671.10
  Q 774.44 675.08 769.16 676.78
  Q 761.38 677.20 754.04 677.79
  Q 744.35 678.57 738.93 678.76
  C 691.15 680.46 647.02 677.05 602.94 663.96
  C 593.76 661.24 583.37 657.88 575.62 652.13
  C 563.46 643.11 578.85 632.26 586.44 628.94
  C 627.05 611.17 669.24 593.06 712.67 580.06
  Q 713.30 579.87 713.52 579.53
  Q 713.81 579.07 713.70 578.46
  Q 726.18 575.25 738.68 572.18
  C 746.44 570.27 754.32 566.76 753.97 557.79
  C 753.64 549.35 742.72 546.66 736.08 547.71
  Q 702.71 552.97 670.11 560.81
  Q 653.34 549.82 632.25 540.99
  Q 592.44 524.31 554.39 513.39
  C 545.37 510.80 536.58 509.04 528.00 508.75
  C 509.21 508.12 485.64 508.22 463.73 508.04
  Q 433.24 507.78 402.99 511.90
  Q 401.21 512.14 398.45 514.60
  C 357.18 487.01 314.07 463.63 269.95 440.98
  Q 271.98 439.37 271.29 435.43
  C 268.76 420.99 269.65 403.22 269.56 390.39
  C 269.30 355.11 269.03 319.61 273.01 284.50
  C 275.12 265.87 278.65 246.99 284.91 229.26
  C 296.52 196.38 313.14 160.00 337.23 133.95
  Q 337.52 133.63 337.39 133.23
  Q 337.12 132.43 336.79 132.20
  C 377.72 109.79 426.02 99.22 471.05 95.90
  Q 545.79 90.39 619.24 113.24
  C 658.13 125.34 694.25 144.33 724.12 170.99
  C 762.65 205.37 790.10 246.32 812.71 292.80
  C 829.14 326.58 843.48 364.70 854.50 403.37
  Q 859.55 421.10 864.74 438.80
  Q 865.47 441.28 866.84 442.45
  Z
  M 539.42 344.81
  C 530.10 343.29 521.38 346.21 513.23 351.10
  Q 512.81 351.36 512.41 351.06
  C 506.06 346.33 495.05 345.42 487.88 345.89
  C 490.27 296.19 456.33 243.77 405.40 234.35
  C 390.19 231.54 375.30 232.94 361.45 239.43
  C 331.06 253.68 313.99 282.84 312.12 316.00
  C 309.86 356.20 336.20 395.71 374.93 408.08
  C 405.29 417.78 437.64 407.55 460.30 386.06
  Q 463.59 382.94 466.15 381.20
  C 476.15 398.69 492.50 414.35 506.08 427.59
  C 510.52 431.92 514.04 433.39 518.78 428.51
  C 536.13 410.65 550.27 397.56 558.58 376.81
  C 561.20 379.46 563.95 381.90 566.58 384.59
  C 593.88 412.63 636.02 421.95 669.59 398.88
  C 693.94 382.14 708.25 353.33 710.05 324.22
  C 712.24 288.67 690.91 250.65 657.42 237.34
  C 600.23 214.60 535.64 273.78 538.90 330.80
  Q 539.30 337.73 539.42 344.81
  Z"
/>
<path fill="#b25f8b" d="
  M 336.79 132.20
  Q 337.12 132.43 337.39 133.23
  Q 337.52 133.63 337.23 133.95
  C 313.14 160.00 296.52 196.38 284.91 229.26
  C 278.65 246.99 275.12 265.87 273.01 284.50
  C 269.03 319.61 269.30 355.11 269.56 390.39
  C 269.65 403.22 268.76 420.99 271.29 435.43
  Q 271.98 439.37 269.95 440.98
  Q 263.44 437.61 256.68 434.58
  C 246.55 430.04 237.08 435.13 236.64 446.53
  Q 236.48 450.63 235.77 455.40
  Q 234.32 452.99 232.09 454.72
  A 1.72 1.71 57.9 0 0 231.61 456.84
  Q 234.62 462.87 239.70 466.61
  C 249.80 474.05 260.90 480.46 271.45 487.06
  C 268.89 488.90 271.48 493.01 271.90 495.28
  C 277.58 526.69 285.53 556.40 298.55 585.95
  Q 302.13 594.06 313.61 613.13
  A 1.07 1.07 0.0 0 1 313.72 614.02
  L 313.22 615.65
  C 307.05 612.31 297.25 605.54 290.66 610.67
  C 282.56 616.97 283.70 626.04 290.63 632.39
  C 298.04 639.18 306.27 642.33 314.58 646.57
  C 368.88 674.29 427.79 693.73 487.50 697.98
  C 505.12 699.24 521.97 691.44 523.96 672.03
  Q 524.87 663.21 524.15 658.31
  C 523.18 651.67 522.55 644.65 520.27 638.53
  C 513.67 620.79 502.23 605.10 489.43 591.31
  C 462.22 562.00 432.28 538.30 398.45 514.60
  Q 401.21 512.14 402.99 511.90
  Q 433.24 507.78 463.73 508.04
  C 485.64 508.22 509.21 508.12 528.00 508.75
  C 536.58 509.04 545.37 510.80 554.39 513.39
  Q 592.44 524.31 632.25 540.99
  Q 653.34 549.82 670.11 560.81
  C 640.91 568.24 613.34 577.12 586.70 591.41
  C 567.17 601.88 542.50 620.04 540.36 644.40
  Q 538.49 645.01 538.90 645.46
  Q 538.29 645.01 537.63 645.30
  Q 537.39 645.41 537.43 645.66
  L 537.51 646.24
  A 0.42 0.42 0.0 0 1 537.06 646.71
  L 531.51 646.20
  A 0.23 0.22 -50.3 0 1 531.47 645.76
  Q 531.61 645.71 531.75 645.67
  A 0.05 0.05 0.0 0 0 531.74 645.58
  L 524.24 645.21
  A 0.85 0.85 0.0 0 0 523.36 646.24
  C 530.77 680.08 519.79 701.59 483.13 698.61
  C 422.62 693.69 364.57 672.93 311.09 646.01
  C 308.29 644.60 306.99 645.52 304.19 646.22
  Q 300.56 647.13 291.00 646.71
  Q 290.75 646.57 290.55 646.17
  Q 290.40 645.87 290.07 645.87
  L 167.40 646.20
  Q 167.00 646.20 167.01 646.60
  L 167.01 647.39
  L 149.79 647.22
  Q 151.87 642.07 150.91 636.63
  Q 150.82 636.08 150.49 635.63
  Q 149.24 633.92 148.86 631.83
  Q 148.78 631.39 148.51 631.03
  L 137.45 616.74
  A 0.64 0.63 -18.9 0 0 136.95 616.50
  L 134.29 616.50
  A 1.29 1.29 0.0 0 1 133.94 613.97
  Q 139.81 612.34 139.96 606.93
  Q 141.23 560.40 147.20 514.24
  C 154.67 456.44 165.50 398.88 182.22 342.99
  C 196.54 295.13 216.86 247.90 244.91 206.43
  Q 254.96 191.57 266.88 178.52
  Q 266.99 178.95 267.56 179.16
  Q 268.05 179.34 268.43 178.98
  C 288.49 159.93 311.01 145.61 336.79 132.20
  Z"
/>
<path fill="#ddf7f8" d="
  M 558.58 376.81
  C 562.93 360.21 556.54 348.20 539.42 344.81
  Q 539.30 337.73 538.90 330.80
  C 535.64 273.78 600.23 214.60 657.42 237.34
  C 690.91 250.65 712.24 288.67 710.05 324.22
  C 708.25 353.33 693.94 382.14 669.59 398.88
  C 636.02 421.95 593.88 412.63 566.58 384.59
  C 563.95 381.90 561.20 379.46 558.58 376.81
  Z
  M 572.77 298.54
  C 560.87 329.89 570.10 368.06 603.35 382.03
  C 620.50 389.24 640.38 384.75 653.19 371.40
  C 667.81 356.14 674.42 335.33 669.79 314.50
  C 663.99 288.42 645.64 267.51 617.99 265.39
  C 596.39 263.73 579.93 279.68 572.77 298.54
  Z"
/>
<path fill="#ddf7f8" d="
  M 487.88 345.89
  Q 481.78 347.15 478.33 348.59
  C 467.89 352.94 460.56 364.81 464.40 376.20
  Q 465.30 378.86 466.15 381.20
  Q 463.59 382.94 460.30 386.06
  C 437.64 407.55 405.29 417.78 374.93 408.08
  C 336.20 395.71 309.86 356.20 312.12 316.00
  C 313.99 282.84 331.06 253.68 361.45 239.43
  C 375.30 232.94 390.19 231.54 405.40 234.35
  C 456.33 243.77 490.27 296.19 487.88 345.89
  Z
  M 353.91 330.31
  C 354.95 363.63 385.98 396.20 421.19 382.23
  C 455.41 368.65 465.03 326.96 451.17 295.58
  C 440.07 270.43 415.87 258.07 389.52 269.72
  C 366.34 279.96 353.13 305.30 353.91 330.31
  Z"
/>
<path fill="#13142c" d="
  M 421.19 382.23
  C 385.98 396.20 354.95 363.63 353.91 330.31
  C 353.13 305.30 366.34 279.96 389.52 269.72
  C 415.87 258.07 440.07 270.43 451.17 295.58
  C 465.03 326.96 455.41 368.65 421.19 382.23
  Z
  M 389.19 338.31
  C 406.28 352.53 425.09 322.74 422.64 308.19
  C 420.80 297.31 411.59 292.10 401.40 295.06
  C 386.13 299.49 375.20 326.67 389.19 338.31
  Z"
/>
<path fill="#13142c" d="
  M 603.35 382.03
  C 570.10 368.06 560.87 329.89 572.77 298.54
  C 579.93 279.68 596.39 263.73 617.99 265.39
  C 645.64 267.51 663.99 288.42 669.79 314.50
  C 674.42 335.33 667.81 356.14 653.19 371.40
  C 640.38 384.75 620.50 389.24 603.35 382.03
  Z
  M 605.10 301.16
  C 593.38 319.21 621.37 357.02 638.49 335.66
  C 649.11 322.40 636.72 296.27 619.87 294.40
  Q 610.18 293.33 605.10 301.16
  Z"
/>
<path fill="#ddf7f8" d="
  M 389.19 338.31
  C 375.20 326.67 386.13 299.49 401.40 295.06
  C 411.59 292.10 420.80 297.31 422.64 308.19
  C 425.09 322.74 406.28 352.53 389.19 338.31
  Z"
/>
<path fill="#ddf7f8" d="
  M 638.49 335.66
  C 621.37 357.02 593.38 319.21 605.10 301.16
  Q 610.18 293.33 619.87 294.40
  C 636.72 296.27 649.11 322.40 638.49 335.66
  Z"
/>
<path fill="#13142c" d="
  M 539.42 344.81
  C 556.54 348.20 562.93 360.21 558.58 376.81
  C 550.27 397.56 536.13 410.65 518.78 428.51
  C 514.04 433.39 510.52 431.92 506.08 427.59
  C 492.50 414.35 476.15 398.69 466.15 381.20
  Q 465.30 378.86 464.40 376.20
  C 460.56 364.81 467.89 352.94 478.33 348.59
  Q 481.78 347.15 487.88 345.89
  C 495.05 345.42 506.06 346.33 512.41 351.06
  Q 512.81 351.36 513.23 351.10
  C 521.38 346.21 530.10 343.29 539.42 344.81
  Z
  M 508.15 405.27
  C 508.91 406.04 510.17 407.87 511.45 408.66
  Q 511.95 408.97 512.33 408.53
  Q 520.87 398.68 528.99 388.49
  C 530.70 386.33 532.80 383.18 531.85 380.29
  C 529.94 374.52 522.27 370.28 516.53 369.14
  Q 505.32 366.91 495.19 371.53
  C 479.94 378.50 502.53 399.58 508.15 405.27
  Z"
/>
<path fill="#f47928" d="
  M 508.15 405.27
  C 502.53 399.58 479.94 378.50 495.19 371.53
  Q 505.32 366.91 516.53 369.14
  C 522.27 370.28 529.94 374.52 531.85 380.29
  C 532.80 383.18 530.70 386.33 528.99 388.49
  Q 520.87 398.68 512.33 408.53
  Q 511.95 408.97 511.45 408.66
  C 510.17 407.87 508.91 406.04 508.15 405.27
  Z"
/>
<path fill="#13142c" d="
  M 269.95 440.98
  C 314.07 463.63 357.18 487.01 398.45 514.60
  C 432.28 538.30 462.22 562.00 489.43 591.31
  C 502.23 605.10 513.67 620.79 520.27 638.53
  C 522.55 644.65 523.18 651.67 524.15 658.31
  Q 524.87 663.21 523.96 672.03
  C 521.97 691.44 505.12 699.24 487.50 697.98
  C 427.79 693.73 368.88 674.29 314.58 646.57
  C 306.27 642.33 298.04 639.18 290.63 632.39
  C 283.70 626.04 282.56 616.97 290.66 610.67
  C 297.25 605.54 307.05 612.31 313.22 615.65
  Q 354.14 639.62 399.07 652.65
  Q 437.05 664.04 475.06 668.44
  Q 482.86 669.34 491.61 669.17
  C 502.41 668.96 498.88 655.96 496.38 650.02
  Q 495.20 645.71 493.23 644.11
  Q 490.50 636.63 485.54 629.95
  C 465.46 602.86 440.04 579.07 413.25 558.72
  C 368.27 524.57 318.68 493.37 267.10 470.15
  Q 251.08 462.94 235.77 455.40
  Q 236.48 450.63 236.64 446.53
  C 237.08 435.13 246.55 430.04 256.68 434.58
  Q 263.44 437.61 269.95 440.98
  Z"
/>
<path fill="#ddf7f8" d="
  M 235.77 455.40
  Q 251.08 462.94 267.10 470.15
  C 318.68 493.37 368.27 524.57 413.25 558.72
  C 440.04 579.07 465.46 602.86 485.54 629.95
  Q 490.50 636.63 493.23 644.11
  Q 486.82 638.18 477.41 627.84
  Q 467.30 616.74 450.68 602.56
  C 432.68 587.20 410.44 571.16 388.34 557.09
  Q 348.88 531.96 300.81 504.69
  Q 294.38 501.03 271.45 487.06
  C 260.90 480.46 249.80 474.05 239.70 466.61
  Q 234.62 462.87 231.61 456.84
  A 1.72 1.71 57.9 0 1 232.09 454.72
  Q 234.32 452.99 235.77 455.40
  Z"
/>
<path fill="#c0779f" d="
  M 271.45 487.06
  Q 294.38 501.03 300.81 504.69
  Q 348.88 531.96 388.34 557.09
  C 410.44 571.16 432.68 587.20 450.68 602.56
  Q 467.30 616.74 477.41 627.84
  Q 486.82 638.18 493.23 644.11
  Q 495.20 645.71 496.38 650.02
  Q 480.33 657.15 461.74 657.18
  C 440.42 657.21 420.66 654.21 400.07 651.85
  Q 399.27 651.76 399.07 652.65
  Q 354.14 639.62 313.22 615.65
  L 313.72 614.02
  A 1.07 1.07 0.0 0 0 313.61 613.13
  Q 302.13 594.06 298.55 585.95
  C 285.53 556.40 277.58 526.69 271.90 495.28
  C 271.48 493.01 268.89 488.90 271.45 487.06
  Z"
/>
<path fill="#13142c" d="
  M 713.70 578.46
  C 676.34 585.74 643.78 594.21 609.67 609.64
  C 597.33 615.22 575.22 627.22 569.48 639.98
  C 562.40 655.72 574.75 664.11 587.00 669.50
  C 615.99 682.25 648.55 687.99 679.96 690.14
  Q 720.05 692.87 758.68 681.19
  Q 763.62 679.69 769.16 676.78
  Q 774.44 675.08 780.39 671.10
  Q 790.48 664.36 800.47 657.46
  C 804.15 654.91 813.81 649.35 817.59 653.60
  C 830.77 668.40 812.52 682.33 801.59 689.36
  C 758.44 717.11 704.60 723.76 654.41 715.52
  Q 628.77 711.31 603.79 704.01
  C 573.39 695.12 540.85 682.39 540.36 644.40
  C 542.50 620.04 567.17 601.88 586.70 591.41
  C 613.34 577.12 640.91 568.24 670.11 560.81
  Q 702.71 552.97 736.08 547.71
  C 742.72 546.66 753.64 549.35 753.97 557.79
  C 754.32 566.76 746.44 570.27 738.68 572.18
  Q 726.18 575.25 713.70 578.46
  Z"
/>
<path fill="#ddf7f8" d="
  M 713.70 578.46
  Q 713.81 579.07 713.52 579.53
  Q 713.30 579.87 712.67 580.06
  C 669.24 593.06 627.05 611.17 586.44 628.94
  C 578.85 632.26 563.46 643.11 575.62 652.13
  C 583.37 657.88 593.76 661.24 602.94 663.96
  C 647.02 677.05 691.15 680.46 738.93 678.76
  Q 744.35 678.57 754.04 677.79
  Q 761.38 677.20 769.16 676.78
  Q 763.62 679.69 758.68 681.19
  Q 720.05 692.87 679.96 690.14
  C 648.55 687.99 615.99 682.25 587.00 669.50
  C 574.75 664.11 562.40 655.72 569.48 639.98
  C 575.22 627.22 597.33 615.22 609.67 609.64
  C 643.78 594.21 676.34 585.74 713.70 578.46
  Z"
/>
<path fill="#ddf7f8" d="
  M 291.00 646.71
  Q 229.00 647.85 167.01 647.39
  L 167.01 646.60
  Q 167.00 646.20 167.40 646.20
  L 290.07 645.87
  Q 290.40 645.87 290.55 646.17
  Q 290.75 646.57 291.00 646.71
  Z"
/>
<path fill="#b25f8b" d="
  M 820.49 650.22
  L 820.54 649.59
  Q 822.16 649.07 823.54 649.30
  Q 824.61 649.48 823.54 649.67
  L 820.49 650.22
  Z"
/>
<path fill="#ddf7f8" d="
  M 496.38 650.02
  C 498.88 655.96 502.41 668.96 491.61 669.17
  Q 482.86 669.34 475.06 668.44
  Q 437.05 664.04 399.07 652.65
  Q 399.27 651.76 400.07 651.85
  C 420.66 654.21 440.42 657.21 461.74 657.18
  Q 480.33 657.15 496.38 650.02
  Z"
/>
<path fill="#83a5b0" fill-opacity="0.992" d="
  M 96.24 923.81
  Q 99.26 924.43 100.23 924.06
  C 107.68 921.21 118.17 919.18 125.51 922.76
  C 131.97 925.90 136.92 932.02 139.75 938.47
  C 144.16 948.50 131.79 955.00 124.62 957.49
  C 116.06 960.48 106.74 962.80 98.62 965.48
  Q 84.24 970.22 72.45 972.97
  C 56.27 976.75 36.71 964.64 41.03 946.11
  Q 45.89 925.30 48.16 916.43
  C 66.29 845.64 85.15 775.04 103.28 704.25
  C 106.60 691.28 118.66 682.93 132.02 685.00
  C 143.45 686.77 149.77 697.37 148.71 708.50
  Q 148.49 710.78 146.73 717.75
  Q 130.27 783.01 112.47 847.93
  C 105.81 872.21 99.44 898.30 94.95 918.49
  Q 94.47 920.66 95.56 923.25
  Q 95.76 923.71 96.24 923.81
  Z
  M 147.79 703.26
  C 144.28 678.05 110.15 681.55 104.50 703.50
  C 84.72 780.37 64.08 857.01 44.79 934.01
  Q 43.08 940.83 41.71 947.73
  C 39.33 959.67 48.61 969.37 59.75 971.76
  C 68.66 973.67 76.05 971.21 85.01 968.55
  Q 115.31 959.57 123.69 956.69
  C 129.70 954.62 137.84 950.95 139.28 944.53
  C 140.99 936.88 132.13 927.79 126.20 924.36
  C 117.51 919.34 107.26 923.31 98.42 924.99
  C 93.92 925.84 93.39 921.94 94.16 918.54
  C 99.47 895.04 104.96 871.58 111.35 848.34
  Q 129.51 782.23 146.30 715.76
  Q 148.38 707.52 147.79 703.26
  Z"
/>
<path fill="#13142c" d="
  M 104.50 703.50
  C 110.15 681.55 144.28 678.05 147.79 703.26
  Q 148.38 707.52 146.30 715.76
  Q 129.51 782.23 111.35 848.34
  C 104.96 871.58 99.47 895.04 94.16 918.54
  C 93.39 921.94 93.92 925.84 98.42 924.99
  C 107.26 923.31 117.51 919.34 126.20 924.36
  C 132.13 927.79 140.99 936.88 139.28 944.53
  C 137.84 950.95 129.70 954.62 123.69 956.69
  Q 115.31 959.57 85.01 968.55
  C 76.05 971.21 68.66 973.67 59.75 971.76
  C 48.61 969.37 39.33 959.67 41.71 947.73
  Q 43.08 940.83 44.79 934.01
  C 64.08 857.01 84.72 780.37 104.50 703.50
  Z"
/>
<path fill="#83a5b0" fill-opacity="0.992" d="
  M 586.36 751.57
  C 570.98 765.11 538.80 757.98 538.29 734.25
  C 537.88 714.87 556.51 702.75 574.51 707.47
  C 594.00 712.57 601.88 737.93 586.36 751.57
  Z
  M 548.97 713.45
  C 532.63 726.66 537.51 754.27 560.79 756.52
  Q 569.86 757.39 572.24 757.00
  C 583.65 755.16 592.55 747.00 593.47 735.38
  C 595.37 711.26 566.60 699.21 548.97 713.45
  Z"
/>
<path fill="#13142c" d="
  M 560.79 756.52
  C 537.51 754.27 532.63 726.66 548.97 713.45
  C 566.60 699.21 595.37 711.26 593.47 735.38
  C 592.55 747.00 583.65 755.16 572.24 757.00
  Q 569.86 757.39 560.79 756.52
  Z"
/>
<path fill="#c0779f" d="
  M 459.18 782.71
  Q 461.18 785.55 463.57 786.65
  Q 463.39 788.53 465.24 789.34
  A 0.94 0.92 88.9 0 1 465.71 789.80
  L 467.85 794.48
  A 0.29 0.29 0.0 0 0 468.38 794.48
  C 470.78 789.39 473.80 784.90 478.96 782.37
  C 491.97 775.98 507.07 781.25 513.51 794.02
  C 518.38 803.68 514.26 814.51 509.60 823.62
  C 487.99 865.87 463.96 909.21 441.72 954.45
  C 432.49 973.23 412.83 978.75 394.54 969.70
  C 385.28 965.11 381.58 956.61 378.48 945.95
  C 370.24 917.68 361.00 882.59 350.10 850.89
  C 346.34 839.94 343.69 828.98 340.62 817.85
  C 337.34 805.95 337.50 794.43 348.28 786.91
  C 362.52 776.97 380.24 782.77 387.32 798.75
  A 0.46 0.45 42.2 0 0 388.17 798.71
  L 390.15 792.60
  Q 390.31 792.10 390.79 791.91
  Q 393.53 790.85 395.44 788.59
  Q 395.79 788.17 395.75 787.63
  Q 395.67 786.59 396.46 785.92
  Q 396.86 785.57 396.66 785.08
  Q 396.16 783.81 397.50 783.48
  Q 401.39 782.51 402.99 782.10
  A 0.90 0.88 88.1 0 0 403.64 781.39
  Q 403.93 779.59 405.65 779.24
  Q 406.00 779.17 406.18 778.88
  Q 406.47 778.41 405.96 778.23
  A 0.60 0.60 0.0 0 1 406.19 777.07
  Q 410.47 777.28 413.53 775.05
  Q 415.49 773.62 416.87 773.21
  C 433.74 768.25 447.50 769.01 459.18 782.71
  Z
  M 414.60 914.27
  Q 403.84 871.15 391.81 828.19
  Q 389.57 820.19 387.70 809.29
  Q 385.78 798.14 384.17 795.00
  C 377.98 782.94 360.50 779.86 349.76 787.04
  C 336.71 795.77 339.08 807.27 342.73 821.92
  Q 346.83 838.43 352.30 854.53
  C 362.41 884.33 370.80 914.83 379.14 945.17
  C 382.03 955.67 385.90 964.86 396.48 969.52
  C 414.87 977.62 432.32 971.37 441.28 953.05
  C 462.49 909.70 485.81 867.43 508.02 824.60
  Q 512.56 815.84 514.24 808.74
  C 517.02 797.04 508.75 784.27 497.05 781.66
  C 482.43 778.41 471.66 785.36 467.43 799.46
  C 464.56 809.02 461.26 817.09 456.37 826.76
  Q 434.53 869.90 415.21 914.32
  A 0.32 0.32 0.0 0 1 414.60 914.27
  Z"
/>
<path fill="#83a5b0" fill-opacity="0.992" d="
  M 196.94 923.69
  C 203.60 917.19 208.26 920.16 213.89 925.46
  C 226.28 937.13 242.65 934.32 256.50 927.05
  C 281.63 913.87 300.38 882.61 288.44 854.26
  C 279.83 833.82 258.82 823.87 237.01 824.29
  C 193.58 825.12 165.62 869.70 189.04 908.60
  C 189.63 909.57 189.75 911.17 189.19 912.15
  Q 181.55 925.50 171.34 936.93
  C 157.92 951.96 145.32 922.30 141.74 913.02
  C 114.84 843.36 175.20 775.94 245.51 780.02
  C 273.55 781.65 297.45 794.34 316.22 815.01
  C 331.65 832.00 338.72 855.33 338.19 877.99
  C 337.15 922.50 303.50 959.52 261.88 972.17
  C 240.35 978.71 217.74 976.36 197.42 966.80
  C 187.67 962.21 176.49 953.97 182.82 942.12
  Q 188.02 932.37 196.94 923.69
  Z
  M 227.76 781.51
  C 192.24 785.36 162.40 806.05 146.43 837.44
  C 131.43 866.95 133.24 898.93 149.49 927.29
  C 152.82 933.12 161.90 946.20 169.77 937.50
  Q 179.54 926.69 187.99 912.67
  Q 189.18 910.70 188.02 908.70
  C 161.99 863.86 200.99 815.43 249.13 824.09
  C 286.90 830.88 305.36 867.88 284.50 901.51
  Q 272.25 921.26 252.83 929.84
  C 242.24 934.52 228.80 937.13 218.58 930.17
  C 212.61 926.11 206.18 916.52 198.03 923.78
  Q 189.90 931.02 184.56 941.06
  C 180.99 947.79 180.90 953.68 186.73 958.75
  C 199.25 969.65 218.38 974.56 234.58 974.90
  C 282.74 975.93 331.13 935.52 336.54 886.99
  C 339.09 864.08 333.51 837.00 318.32 818.92
  C 295.40 791.64 263.56 777.64 227.76 781.51
  Z"
/>
<path fill="#83a5b0" fill-opacity="0.992" d="
  M 632.12 899.85
  C 610.46 877.97 579.55 862.58 586.00 825.77
  Q 590.32 801.16 612.77 788.35
  C 646.46 769.14 688.94 783.14 697.20 823.03
  C 698.56 829.59 698.39 837.29 694.96 842.67
  C 689.05 851.95 674.40 851.71 665.57 847.46
  C 659.82 844.70 656.35 840.01 655.21 833.75
  C 654.73 831.12 654.48 828.09 653.01 825.95
  C 647.06 817.25 631.27 822.13 629.18 831.79
  C 626.82 842.75 639.91 853.42 648.27 860.80
  C 656.42 867.99 664.26 874.57 671.78 882.98
  C 694.35 908.20 685.97 951.26 658.39 969.68
  C 642.21 980.50 620.27 983.61 601.99 976.27
  C 582.12 968.30 561.95 948.69 563.75 925.20
  C 564.55 914.73 569.53 905.76 579.96 902.64
  C 590.23 899.56 600.42 904.11 606.23 912.85
  C 610.81 919.75 605.28 929.78 611.82 934.44
  C 614.42 936.28 619.53 937.75 622.92 937.45
  Q 635.92 936.31 638.84 922.73
  Q 641.68 909.51 632.12 899.85
  Z
  M 587.19 825.16
  C 581.40 855.80 601.91 872.33 622.79 889.75
  C 633.30 898.52 643.15 907.77 639.91 922.80
  C 637.39 934.46 626.70 941.93 615.09 937.11
  C 602.55 931.90 610.17 925.14 606.70 915.94
  C 600.97 900.74 578.23 898.17 569.06 911.73
  C 561.75 922.53 564.33 940.04 571.34 950.43
  C 606.83 1003.05 685.78 979.19 683.59 914.92
  C 683.04 898.82 674.68 885.61 662.56 874.94
  Q 651.40 865.11 640.38 855.12
  C 632.80 848.26 621.38 834.46 632.29 824.73
  C 640.27 817.62 653.85 818.67 655.64 831.38
  C 657.53 844.87 667.20 849.02 679.74 848.88
  C 698.87 848.68 699.05 829.42 694.31 816.26
  C 685.15 790.81 660.61 776.59 633.67 781.60
  C 610.56 785.89 591.69 801.35 587.19 825.16
  Z"
/>
<path fill="#83a5b0" fill-opacity="0.992" d="
  M 793.42 974.91
  C 741.59 972.10 700.74 928.56 704.24 876.02
  C 707.33 829.69 738.40 790.02 784.74 781.76
  C 818.36 775.78 851.38 787.43 872.03 814.94
  C 890.80 839.95 889.16 869.95 871.88 895.10
  C 868.14 900.55 863.73 902.95 856.88 902.97
  Q 805.72 903.12 754.89 902.85
  A 1.00 0.99 -11.4 0 0 753.97 904.23
  C 760.51 919.56 774.64 931.53 792.09 930.17
  C 805.25 929.14 814.94 922.01 826.04 917.05
  C 831.18 914.75 842.35 922.36 845.84 925.67
  C 851.17 930.74 852.36 937.44 850.49 944.61
  C 844.42 967.94 814.26 976.04 793.42 974.91
  Z
  M 828.60 967.41
  C 838.08 963.19 846.30 955.03 849.28 944.88
  C 853.37 930.93 844.90 924.45 833.72 919.28
  Q 828.31 916.78 823.92 919.25
  C 807.42 928.54 788.19 937.27 770.55 925.69
  C 762.50 920.40 756.16 912.86 752.73 903.71
  A 1.45 1.45 0.0 0 1 754.09 901.75
  Q 806.03 901.75 858.29 901.75
  C 863.75 901.75 867.70 899.41 870.72 895.19
  C 888.53 870.26 889.83 838.70 869.95 813.80
  C 854.79 794.80 833.02 783.29 808.82 781.57
  C 758.15 777.97 715.99 812.93 706.98 862.23
  C 702.85 884.78 705.26 908.44 717.48 928.28
  Q 735.45 957.44 766.78 968.61
  C 786.58 975.68 809.30 976.01 828.60 967.41
  Z"
/>
<path fill="#13142c" d="
  M 622.79 889.75
  C 601.91 872.33 581.40 855.80 587.19 825.16
  C 591.69 801.35 610.56 785.89 633.67 781.60
  C 660.61 776.59 685.15 790.81 694.31 816.26
  C 699.05 829.42 698.87 848.68 679.74 848.88
  C 667.20 849.02 657.53 844.87 655.64 831.38
  C 653.85 818.67 640.27 817.62 632.29 824.73
  C 621.38 834.46 632.80 848.26 640.38 855.12
  Q 651.40 865.11 662.56 874.94
  C 674.68 885.61 683.04 898.82 683.59 914.92
  C 685.78 979.19 606.83 1003.05 571.34 950.43
  C 564.33 940.04 561.75 922.53 569.06 911.73
  C 578.23 898.17 600.97 900.74 606.70 915.94
  C 610.17 925.14 602.55 931.90 615.09 937.11
  C 626.70 941.93 637.39 934.46 639.91 922.80
  C 643.15 907.77 633.30 898.52 622.79 889.75
  Z"
/>
<path fill="#13142c" d="
  M 146.43 837.44
  C 162.40 806.05 192.24 785.36 227.76 781.51
  C 263.56 777.64 295.40 791.64 318.32 818.92
  C 333.51 837.00 339.09 864.08 336.54 886.99
  C 331.13 935.52 282.74 975.93 234.58 974.90
  C 218.38 974.56 199.25 969.65 186.73 958.75
  C 180.90 953.68 180.99 947.79 184.56 941.06
  Q 189.90 931.02 198.03 923.78
  C 206.18 916.52 212.61 926.11 218.58 930.17
  C 228.80 937.13 242.24 934.52 252.83 929.84
  Q 272.25 921.26 284.50 901.51
  C 305.36 867.88 286.90 830.88 249.13 824.09
  C 200.99 815.43 161.99 863.86 188.02 908.70
  Q 189.18 910.70 187.99 912.67
  Q 179.54 926.69 169.77 937.50
  C 161.90 946.20 152.82 933.12 149.49 927.29
  C 133.24 898.93 131.43 866.95 146.43 837.44
  Z"
/>
<path fill="#13142c" d="
  M 414.60 914.27
  A 0.32 0.32 0.0 0 0 415.21 914.32
  Q 434.53 869.90 456.37 826.76
  C 461.26 817.09 464.56 809.02 467.43 799.46
  C 471.66 785.36 482.43 778.41 497.05 781.66
  C 508.75 784.27 517.02 797.04 514.24 808.74
  Q 512.56 815.84 508.02 824.60
  C 485.81 867.43 462.49 909.70 441.28 953.05
  C 432.32 971.37 414.87 977.62 396.48 969.52
  C 385.90 964.86 382.03 955.67 379.14 945.17
  C 370.80 914.83 362.41 884.33 352.30 854.53
  Q 346.83 838.43 342.73 821.92
  C 339.08 807.27 336.71 795.77 349.76 787.04
  C 360.50 779.86 377.98 782.94 384.17 795.00
  Q 385.78 798.14 387.70 809.29
  Q 389.57 820.19 391.81 828.19
  Q 403.84 871.15 414.60 914.27
  Z"
/>
<path fill="#83a5b0" fill-opacity="0.992" d="
  M 906.90 967.29
  C 891.87 974.70 872.44 964.68 873.82 946.28
  Q 873.94 944.70 875.46 938.85
  C 884.44 904.13 898.06 851.81 907.24 809.75
  Q 907.91 806.69 910.29 797.86
  C 912.21 790.78 921.54 780.97 929.31 781.02
  Q 949.29 781.17 960.17 782.81
  Q 981.13 785.96 984.91 805.80
  C 987.76 820.71 985.26 851.63 964.11 851.96
  Q 960.01 852.02 956.23 849.63
  C 953.02 847.61 950.19 843.34 947.39 840.19
  A 0.61 0.61 0.0 0 0 946.34 840.47
  C 941.66 863.90 935.19 889.80 925.00 930.00
  C 921.33 944.49 921.94 959.87 906.90 967.29
  Z
  M 946.86 838.74
  Q 947.31 838.83 948.12 839.42
  Q 948.64 839.80 949.09 840.44
  C 951.87 844.43 954.89 848.60 959.66 850.04
  C 980.69 856.40 985.35 827.24 984.73 813.89
  C 983.97 797.35 976.43 785.63 959.21 783.75
  Q 945.49 782.25 929.74 782.12
  C 921.78 782.06 912.55 791.28 910.84 798.66
  Q 895.26 866.20 877.75 933.27
  C 876.44 938.28 874.46 944.77 874.77 949.02
  C 876.39 971.22 903.85 975.18 915.59 958.30
  C 921.77 949.42 922.57 935.61 924.64 927.43
  Q 933.65 891.82 942.17 856.09
  Q 944.10 848.02 945.34 839.79
  Q 945.54 838.45 946.86 838.74
  Z"
/>
<path fill="#13142c" d="
  M 849.28 944.88
  C 846.30 955.03 838.08 963.19 828.60 967.41
  C 809.30 976.01 786.58 975.68 766.78 968.61
  Q 735.45 957.44 717.48 928.28
  C 705.26 908.44 702.85 884.78 706.98 862.23
  C 715.99 812.93 758.15 777.97 808.82 781.57
  C 833.02 783.29 854.79 794.80 869.95 813.80
  C 889.83 838.70 888.53 870.26 870.72 895.19
  C 867.70 899.41 863.75 901.75 858.29 901.75
  Q 806.03 901.75 754.09 901.75
  A 1.45 1.45 0.0 0 0 752.73 903.71
  C 756.16 912.86 762.50 920.40 770.55 925.69
  C 788.19 937.27 807.42 928.54 823.92 919.25
  Q 828.31 916.78 833.72 919.28
  C 844.90 924.45 853.37 930.93 849.28 944.88
  Z
  M 753.56 862.71
  L 842.09 863.44
  Q 843.32 863.45 843.23 862.23
  C 841.92 842.90 830.71 827.55 811.46 822.95
  C 788.04 817.35 763.66 835.88 753.79 855.68
  C 753.11 857.04 751.67 859.28 751.78 861.02
  Q 751.89 862.69 753.56 862.71
  Z"
/>
<path fill="#83a5b0" fill-opacity="0.992" d="
  M 530.21 795.94
  C 538.56 774.42 575.29 778.19 574.96 802.53
  Q 574.87 809.49 572.73 818.50
  C 568.08 838.03 563.05 857.48 558.65 877.07
  C 554.63 894.98 549.74 912.81 546.42 930.84
  C 545.01 938.52 543.95 947.78 540.87 954.10
  C 536.43 963.21 526.56 970.56 515.97 970.10
  C 503.52 969.56 494.82 961.19 495.55 948.31
  Q 496.11 938.43 501.09 915.96
  C 509.43 878.32 518.17 840.96 527.59 803.57
  Q 528.21 801.10 530.21 795.94
  Z
  M 496.74 947.73
  C 494.59 965.08 512.90 973.66 526.87 966.74
  C 541.06 959.72 542.42 947.20 544.95 931.99
  Q 546.91 920.18 557.93 876.30
  C 558.42 874.34 558.64 871.86 559.09 870.07
  Q 565.97 842.88 572.25 815.55
  C 575.47 801.52 574.74 787.38 558.05 783.48
  C 545.92 780.64 533.94 786.53 530.08 798.82
  C 526.99 808.68 524.29 821.03 522.25 828.72
  C 515.50 854.18 509.95 881.14 502.66 913.67
  Q 498.86 930.57 496.74 947.73
  Z"
/>
<path fill="#13142c" d="
  M 946.86 838.74
  Q 945.54 838.45 945.34 839.79
  Q 944.10 848.02 942.17 856.09
  Q 933.65 891.82 924.64 927.43
  C 922.57 935.61 921.77 949.42 915.59 958.30
  C 903.85 975.18 876.39 971.22 874.77 949.02
  C 874.46 944.77 876.44 938.28 877.75 933.27
  Q 895.26 866.20 910.84 798.66
  C 912.55 791.28 921.78 782.06 929.74 782.12
  Q 945.49 782.25 959.21 783.75
  C 976.43 785.63 983.97 797.35 984.73 813.89
  C 985.35 827.24 980.69 856.40 959.66 850.04
  C 954.89 848.60 951.87 844.43 949.09 840.44
  Q 948.64 839.80 948.12 839.42
  Q 947.31 838.83 946.86 838.74
  Z"
/>
<path fill="#ddf7f8" d="
  M 459.18 782.71
  L 462.86 783.27
  Q 463.41 783.35 463.44 783.90
  L 463.57 786.65
  Q 461.18 785.55 459.18 782.71
  Z"
/>
<path fill="#13142c" d="
  M 526.87 966.74
  C 512.90 973.66 494.59 965.08 496.74 947.73
  Q 498.86 930.57 502.66 913.67
  C 509.95 881.14 515.50 854.18 522.25 828.72
  C 524.29 821.03 526.99 808.68 530.08 798.82
  C 533.94 786.53 545.92 780.64 558.05 783.48
  C 574.74 787.38 575.47 801.52 572.25 815.55
  Q 565.97 842.88 559.09 870.07
  C 558.64 871.86 558.42 874.34 557.93 876.30
  Q 546.91 920.18 544.95 931.99
  C 542.42 947.20 541.06 959.72 526.87 966.74
  Z"
/>
<path fill="#83a5b0" fill-opacity="0.992" d="
  M 842.09 863.44
  L 753.56 862.71
  Q 751.89 862.69 751.78 861.02
  C 751.67 859.28 753.11 857.04 753.79 855.68
  C 763.66 835.88 788.04 817.35 811.46 822.95
  C 830.71 827.55 841.92 842.90 843.23 862.23
  Q 843.32 863.45 842.09 863.44
  Z
  M 754.01 861.24
  C 758.59 861.22 763.18 861.80 767.75 861.84
  Q 804.38 862.20 841.59 862.28
  A 0.56 0.56 0.0 0 0 842.15 861.69
  C 840.82 833.94 814.36 815.65 787.95 825.85
  Q 763.98 835.10 752.96 859.62
  A 1.15 1.15 0.0 0 0 754.01 861.24
  Z"
/>
<path fill="#83a5b0" fill-opacity="0.992" d="
  M 263.36 833.77
  L 262.25 833.66
  A 0.17 0.17 0.0 0 1 262.25 833.32
  L 265.26 833.01
  Q 265.65 832.97 265.71 833.36
  L 265.75 833.70
  Q 265.78 833.91 265.57 833.96
  Q 264.67 834.14 263.90 833.89
  Q 263.64 833.80 263.36 833.77
  Z"
/>
<rect fill="#ddf7f8" x="-5.39" y="-0.52" transform="translate(260.80,848.50) rotate(1.7)" width="10.78" height="1.04" rx="0.47"/>
<path fill="#ddf7f8" d="
  M 243.79 857.53
  Q 244.60 856.44 246.13 856.20
  A 0.73 0.72 85.9 0 0 246.75 855.48
  L 246.75 854.82
  A 0.70 0.70 0.0 0 1 247.21 854.16
  L 249.75 853.18
  Q 250.26 852.99 250.22 852.45
  Q 250.14 851.37 251.25 851.05
  Q 260.60 848.37 269.94 850.85
  Q 270.43 850.98 270.63 851.44
  C 275.08 861.79 277.98 867.52 273.09 878.85
  Q 267.02 892.90 256.05 903.80
  Q 253.63 906.20 249.08 911.08
  C 244.76 915.73 235.71 917.61 229.97 914.79
  C 217.33 908.56 195.15 879.48 199.32 864.56
  Q 200.82 859.22 203.44 854.31
  Q 203.67 853.87 204.16 853.75
  Q 206.17 853.29 207.46 851.72
  A 1.45 1.37 -75.8 0 1 208.20 851.25
  Q 216.45 849.05 224.70 851.33
  Q 225.16 851.45 225.50 851.79
  Q 227.34 853.62 229.92 854.26
  A 0.32 0.32 0.0 0 1 230.07 854.80
  L 229.84 855.04
  A 0.37 0.36 31.7 0 0 229.99 855.65
  Q 231.86 856.27 232.20 858.24
  Q 232.29 858.77 232.69 859.13
  C 234.53 860.77 235.42 864.93 238.88 863.08
  A 0.60 0.60 0.0 0 1 239.47 864.13
  Q 239.03 864.39 238.45 864.23
  A 0.32 0.31 85.4 0 0 238.08 864.67
  L 238.34 865.21
  A 1.09 1.09 0.0 0 0 240.35 865.12
  L 242.16 860.21
  Q 242.33 859.75 242.76 859.50
  Q 244.08 858.75 243.79 857.53
  Z
  M 237.34 867.86
  Q 235.63 865.71 233.48 862.29
  Q 227.71 853.10 217.67 851.99
  C 211.07 851.26 204.44 854.46 202.19 860.78
  C 196.34 877.17 211.21 894.40 220.62 905.39
  C 229.37 915.62 238.27 918.08 248.93 908.34
  C 258.20 899.88 272.18 883.10 273.68 870.30
  C 274.53 862.97 271.65 851.71 262.51 850.79
  C 251.88 849.72 244.58 859.16 239.82 867.66
  Q 238.73 869.61 237.34 867.86
  Z"
/>
<path fill="#db1a7c" d="
  M 237.34 867.86
  Q 238.73 869.61 239.82 867.66
  C 244.58 859.16 251.88 849.72 262.51 850.79
  C 271.65 851.71 274.53 862.97 273.68 870.30
  C 272.18 883.10 258.20 899.88 248.93 908.34
  C 238.27 918.08 229.37 915.62 220.62 905.39
  C 211.21 894.40 196.34 877.17 202.19 860.78
  C 204.44 854.46 211.07 851.26 217.67 851.99
  Q 227.71 853.10 233.48 862.29
  Q 235.63 865.71 237.34 867.86
  Z"
/>
<path fill="#ddf7f8" d="
  M 243.79 857.53
  Q 242.52 858.00 241.79 858.95
  Q 241.39 859.49 240.80 859.17
  L 239.63 858.53
  A 0.33 0.33 0.0 0 1 239.72 857.92
  L 243.30 857.15
  Q 243.52 857.10 243.64 857.29
  L 243.79 857.53
  Z"
/>
<path fill="#13142c" d="
  M 998.67 877.15
  Q 998.39 877.66 997.78 877.84
  Q 997.04 878.06 997.59 877.52
  L 999.21 875.95
  A 0.21 0.19 -85.8 0 1 999.45 876.27
  Q 999.30 876.42 999.15 876.55
  Q 998.86 876.81 998.67 877.15
  Z"
/>
</svg>
