<svg version="1.1" xmlns="http://www.w3.org/2000/svg" xmlns:xlink="http://www.w3.org/1999/xlink" width="32px" height="32px" viewBox="0,0,256,256"><g fill="#090909" fill-rule="nonzero" stroke="none" stroke-width="1" stroke-linecap="butt" stroke-linejoin="miter" stroke-miterlimit="10" stroke-dasharray="" stroke-dashoffset="0"  style="mix-blend-mode: normal"><g transform="scale(8,8)"><path d="M16,3c-7.168,0 -13,5.832 -13,13c0,7.168 5.832,13 13,13c7.168,0 13,-5.832 13,-13c0,-7.168 -5.832,-13 -13,-13zM16,5c0.338,0 0.67,0.02078 1,0.05078v1.94922h-2l-1,3h-1v1h5l1,1h1v1l-1,1l-4,-1l-4,3v3l2,2h3v2.5l1,2.5h1l3,-4v-1l1,-2v-1h-1l-1,-2l1,-1l1.5,1l2.5,-1v-1h1.80859c0.12,0.65 0.19141,1.316 0.19141,2c0,6.065 -4.935,11 -11,11c-6.065,0 -11,-4.935 -11,-11c0,-6.065 4.935,-11 11,-11z"></path></g></g></svg>