<svg version="1.1" xmlns="http://www.w3.org/2000/svg" xmlns:xlink="http://www.w3.org/1999/xlink" width="24px" height="24px" viewBox="0,0,256,256"><g fill="#9d9d9d" fill-rule="nonzero" stroke="none" stroke-width="1" stroke-linecap="butt" stroke-linejoin="miter" stroke-miterlimit="10" stroke-dasharray="" stroke-dashoffset="0"  style="mix-blend-mode: normal"><g transform="scale(10.66667,10.66667)"><circle cx="12" cy="12" r="10" opacity="0.35"></circle><path d="M15.868,18c0.653,0 1.137,-0.619 0.974,-1.251c-0.555,-2.156 -2.513,-3.749 -4.842,-3.749c-2.329,0 -4.287,1.593 -4.842,3.749c-0.163,0.632 0.321,1.251 0.974,1.251z"></path><path d="M7,12c-0.552,0 -1,-0.448 -1,-1c0,-0.545 0.437,-0.989 0.979,-1c0.053,-0.003 0.662,-0.056 1.313,-0.707c0.391,-0.391 1.023,-0.391 1.414,0c0.391,0.391 0.391,1.023 0,1.414c-1.255,1.257 -2.561,1.293 -2.706,1.293z"></path><path d="M17,12c-0.145,0 -1.451,-0.036 -2.707,-1.293c-0.391,-0.391 -0.391,-1.023 0,-1.414c0.391,-0.391 1.023,-0.391 1.414,0c0.668,0.667 1.291,0.706 1.316,0.707c0.542,0.027 0.977,0.482 0.963,1.024c-0.013,0.543 -0.444,0.976 -0.986,0.976z"></path></g></g></svg>