<svg version="1.1" xmlns="http://www.w3.org/2000/svg" xmlns:xlink="http://www.w3.org/1999/xlink" width="24px" height="24px" viewBox="0,0,256,256"><g fill="#030303" fill-rule="nonzero" stroke="none" stroke-width="1" stroke-linecap="butt" stroke-linejoin="miter" stroke-miterlimit="10" stroke-dasharray="" stroke-dashoffset="0"  style="mix-blend-mode: normal"><g transform="scale(10.66667,10.66667)"><path d="M11.96289,2c-0.14268,0.00547 -0.28253,0.04144 -0.41016,0.10547l-6,3c-0.31965,0.15976 -0.52977,0.47792 -0.5512,0.83463c-0.02143,0.3567 0.14909,0.69774 0.44731,0.89462c0.29822,0.19688 0.67883,0.21968 0.99842,0.05982l0.55273,-0.27734v3.38281l5,-2l5,2v-3.38281l0.55273,0.27734c0.3196,0.15991 0.70024,0.13713 0.99848,-0.05975c0.29825,-0.19688 0.46878,-0.53794 0.44733,-0.89467c-0.02144,-0.35673 -0.2316,-0.6749 -0.55129,-0.83464l-6,-3c-0.15005,-0.07525 -0.31662,-0.11152 -0.48437,-0.10547zM12.01953,10.04297c-0.14651,-0.00289 -0.29186,0.02644 -0.42578,0.08594l-9.99219,4.45313c-0.50482,0.22491 -0.73174,0.81647 -0.50684,1.32129c0.22491,0.50482 0.81647,0.73174 1.32129,0.50684l0.58398,-0.25977v3.84961c0,0.552 0.448,1 1,1h5c0.552,0 1,-0.448 1,-1v-2c0,-0.552 0.448,-1 1,-1h2c0.552,0 1,0.448 1,1v2c0,0.552 0.448,1 1,1h5c0.552,0 1,-0.448 1,-1v-3.84961l0.58398,0.25977c0.50482,0.22491 1.09638,-0.00201 1.32129,-0.50684c0.22491,-0.50482 -0.00201,-1.09638 -0.50684,-1.32129l-9.99219,-4.45312c-0.12189,-0.05415 -0.25337,-0.08336 -0.38672,-0.08594z"></path></g></g></svg>