<svg version="1.1" xmlns="http://www.w3.org/2000/svg" xmlns:xlink="http://www.w3.org/1999/xlink" width="50px" height="50px" viewBox="0,0,256,256"><g fill="#030303" fill-rule="nonzero" stroke="none" stroke-width="1" stroke-linecap="butt" stroke-linejoin="miter" stroke-miterlimit="10" stroke-dasharray="" stroke-dashoffset="0"  style="mix-blend-mode: normal"><g transform="scale(5.12,5.12)"><path d="M37,2v4h6.1875l-5.25,5.25c-1.96094,-1.39844 -4.35156,-2.25 -6.9375,-2.25c-6.61719,0 -12,5.38281 -12,12c0,4.12109 2.13672,7.92578 5.59375,10.125c0.25391,-0.66797 0.40625,-1.39453 0.40625,-2.125c0,-1.42187 -0.39844,-2.80859 -0.9375,-4h0.03125c-0.70703,-1.19141 -1.09375,-2.5625 -1.09375,-4c0,-4.41016 3.58984,-8 8,-8c4.41016,0 8,3.58984 8,8c0,3.70313 -2.51953,6.80859 -6,7.71875c0.00391,0.09375 0,0.1875 0,0.28125c0,1.33984 -0.21875,2.64844 -0.59375,3.90625c5.95703,-0.69922 10.59375,-5.76562 10.59375,-11.90625c0,-2.58594 -0.85156,-4.97656 -2.25,-6.9375l5.25,-5.25v6.1875h4v-13zM17.5625,17.09375c-5.94531,0.70703 -10.5625,5.77344 -10.5625,11.90625c0,2.57813 0.82813,4.98047 2.21875,6.9375l-3.25,3.25l-3.125,-3.03125l-2.78125,2.875l3.09375,3l-3.09375,3.0625l2.84375,2.84375l3.125,-3.125l3.125,3.03125l2.78125,-2.875l-3.09375,-3l3.21875,-3.21875c1.96094,1.39844 4.35156,2.25 6.9375,2.25c6.61719,0 12,-5.38281 12,-12c0,-4.11719 -2.14062,-7.89453 -5.59375,-10.09375c-0.25781,0.66797 -0.40625,1.36719 -0.40625,2.09375c0,1.03906 0.92969,4.15234 1.46875,5.0625l-0.03125,0.0625c0.35547,0.90234 0.5625,1.86719 0.5625,2.875c0,4.41016 -3.58984,8 -8,8c-4.41016,0 -8,-3.58984 -8,-8c0,-3.72656 2.54688,-6.86328 6,-7.75c-0.00391,-0.08984 0,-0.16406 0,-0.25c0,-1.33594 0.1875,-2.64844 0.5625,-3.90625z"></path></g></g></svg>